<?xml version="1.0" encoding="utf-8"?>
<!-- Generator: Adobe Illustrator 22.1.0, SVG Export Plug-In . SVG Version: 6.00 Build 0)  -->
<svg version="1.1" xmlns="http://www.w3.org/2000/svg" xmlns:xlink="http://www.w3.org/1999/xlink" x="0px" y="0px"
	 viewBox="0 0 720 1024" style="enable-background:new 0 0 720 1024;" xml:space="preserve">
<style type="text/css">
	.st0{fill:#F09832;}
	.st1{opacity:0.1;fill:#FFF6E3;}
	.st2{fill:url(#SVGID_1_);}
	.st3{fill:#FFEBB8;}
	.st4{opacity:0.24;fill:#FFEBB8;}
	.st5{fill:#CECECD;}
	.st6{fill:#A3DBE7;}
	.st7{fill:#C0E6F0;}
	.st8{fill:#212D45;}
	.st9{fill:#FFFFFF;}
	.st10{fill:#2A3958;}
	.st11{fill:#3A5799;}
	.st12{fill:#F1622E;}
	.st13{fill:#23A84F;}
	.st14{fill:#FCD73F;}
	.st15{fill:#45C6EB;}
	.st16{fill:none;stroke:#212D45;stroke-width:0.9976;stroke-linecap:round;stroke-linejoin:round;stroke-miterlimit:10;}
	.st17{fill:#E0E0E0;}
	.st18{fill:#F55D51;}
	.st19{fill:#8D5C3E;}
	.st20{fill:#E54D42;}
	.st21{fill:#D5E5E6;}
	.st22{fill:none;stroke:#FFF6E3;stroke-width:3.1344;stroke-miterlimit:10;}
	.st23{fill:#F0EFEF;}
	.st24{fill:#4E5565;}
	.st25{fill:#E78224;}
	.st26{fill:#FCB614;}
	.st27{fill:#BFD7EC;}
	.st28{fill:#F89F1B;}
	.st29{fill:#FFC52A;}
	.st30{fill:#FFCA05;}
	.st31{fill:#1A222B;}
	.st32{fill:#515F71;}
	.st33{fill:#CC2527;}
	.st34{fill:#EE4645;}
	.st35{fill:#243343;}
	.st36{opacity:0.34;fill:#F0F0F0;}
	.st37{fill:#292B37;}
	.st38{fill:#1C1E29;}
	.st39{fill:#393D48;}
	.st40{opacity:0.5;fill:#393D48;}
	.st41{fill:#ECECEC;}
	.st42{opacity:0.5;fill:#FFFFFF;}
	.st43{fill:#F7F9FC;}
	.st44{fill:#303030;}
	.st45{fill:#F0F0F0;}
	.st46{fill:#808080;}
	.st47{fill:#F3AA43;}
	.st48{fill:#EF893A;}
	.st49{fill:#EAB99A;}
	.st50{fill:#FD6D60;}
	.st51{fill:#F5C4A5;}
	.st52{fill:#C5D5D6;}
	.st53{fill:#DEAD8E;}
	.st54{fill:#F4CAAF;}
	.st55{fill:#47210C;}
	.st56{fill:#5D2C10;}
	.st57{fill:#A5B5B6;}
	.st58{fill:#859596;}
	.st59{fill:#95A5A6;}
	.st60{fill:#F7F2E8;}
	.st61{fill:#707070;}
	.st62{fill:#2C2C2C;}
	.st63{fill-rule:evenodd;clip-rule:evenodd;fill:#332F2D;}
	.st64{fill-rule:evenodd;clip-rule:evenodd;fill:#FDCD9F;}
	.st65{fill-rule:evenodd;clip-rule:evenodd;fill:#FDC793;}
	.st66{fill-rule:evenodd;clip-rule:evenodd;fill:#FD9029;}
	.st67{fill-rule:evenodd;clip-rule:evenodd;fill:#F6A150;}
	.st68{fill-rule:evenodd;clip-rule:evenodd;fill:#FDBB73;}
	.st69{fill-rule:evenodd;clip-rule:evenodd;fill:#FA912E;}
	.st70{fill-rule:evenodd;clip-rule:evenodd;fill:#FDC188;}
	.st71{fill-rule:evenodd;clip-rule:evenodd;fill:#F9AE67;}
	.st72{fill-rule:evenodd;clip-rule:evenodd;fill:#FD9837;}
	.st73{fill-rule:evenodd;clip-rule:evenodd;fill:#F8A85D;}
	.st74{fill-rule:evenodd;clip-rule:evenodd;fill:#FDA045;}
	.st75{fill-rule:evenodd;clip-rule:evenodd;fill:#FEA850;}
	.st76{fill-rule:evenodd;clip-rule:evenodd;fill:#FDB362;}
	.st77{fill:#FD9029;}
	.st78{fill:#007A4A;}
	.st79{fill:#01AC56;}
	.st80{fill:#15DB77;}
	.st81{opacity:0.25;}
	.st82{clip-path:url(#SVGID_3_);}
	.st83{clip-path:url(#SVGID_5_);fill:#01AC56;}
	.st84{fill:#00AB54;}
	.st85{clip-path:url(#SVGID_7_);}
	.st86{clip-path:url(#SVGID_9_);fill:#01AC56;}
	.st87{opacity:0.69;}
	.st88{clip-path:url(#SVGID_11_);}
	.st89{clip-path:url(#SVGID_13_);fill:#15DB77;}
</style>
<g id="Layer_8">
	<rect x="1" y="1" class="st0" width="720" height="1024"/>
	<path class="st1" d="M721,98v832c-48.5,40.7-104.2,73.1-164.9,95H187.9C117.8,999.7,54.3,960.4,1,910.5v-793
		C55.8,66.2,121.2,26.2,193.5,1h356.9C613.4,22.9,671,56,721,98z"/>
	<path class="st1" d="M721,282.2V746c-75.1,112.7-203.3,187-348.9,187C211,933,71.1,842,1,708.6V319.6
		C71.1,186.2,211,95.2,372.1,95.2C517.7,95.2,645.9,169.5,721,282.2z"/>
	
		<ellipse transform="matrix(0.7071 -0.7071 0.7071 0.7071 -267.8466 416.1222)" class="st1" cx="368.4" cy="531.4" rx="289.6" ry="289.6"/>
</g>
<g id="Layer_12">
</g>
<g id="Layer_1">
	
		<radialGradient id="SVGID_1_" cx="361.5" cy="939.4219" r="261.4894" gradientTransform="matrix(6.123234e-17 -1 2 1.224647e-16 -1517.3439 1300.9219)" gradientUnits="userSpaceOnUse">
		<stop  offset="0.2312" style="stop-color:#E65711"/>
		<stop  offset="0.7366" style="stop-color:#FCA747"/>
	</radialGradient>
	<path class="st2" d="M721.5,1024H1.5c0,0,1-84.8,0-153c117-23.1,720-19.9,720,0S721.5,1024,721.5,1024z"/>
	<g>
		<path class="st3" d="M605.5,711.4c-4.2,7.2-13.7,14.1-15.1,22.6c-1.3,7.6,0,19.4,2.8,26.6c1.8,4.6,4.8,8.6,7.3,12.8
			c6.1,10.4,9.9,19,6.9,31c-5.3,20.8-18.6,39.4-36.3,51.6c-19.7,13.6-42,16.2-65.5,15.3c-24.3-1-48.5-1.8-72.8-1.6
			c-41.9,0.2-83.7,0.2-125.6,0.2c-20.4,0-40.7,0.8-61.1,1.4c-24.3,0.6-48.6,0.9-72.9-1.2c-6.4-0.5-11.6-2.5-17.6-4.6
			c-21.2-7.3-43.5-26.7-31.6-50.9c17.4-35.5,37.1-57.6,14.3-77c-22.8-19.4-29.9-56.4-6.4-77.2c23.5-20.8,30.5,0.6,49.2-7.1
			c18.7-7.7-5-47.6,47.8-58.9c52.8-11.3,93.8,22.8,117.9,19c24-3.9,60.9-27.5,86.8-26.5c25.9,1,22.7,35.8,57.1,33.7
			c34.4-2,93.3-24.9,115.6,4.7c12.6,16.8,14.5,39.8,10,59.8C614,694.2,610.2,703.3,605.5,711.4z"/>
		<path class="st4" d="M252.5,869.3c68.2,5.2,73-18.1,145.8-11c45.4,4.4,56.9,14.8,104.8,13.8c32-0.7,63.4-1.8,91.1-22.3
			c6.3-4.7,47.4-36.3,37.1-72.7c-5.1-18.3-28-17.8-34.8-37.1c-5.6-15.8,4.8-27.6,11.5-46.2c12.8-36,10.6-82.3-11.5-95.7
			c-33.3-20.2-99,27.7-169.5,10c-29.6-7.4-19.2,3.7-58.4-16.1c-65.9-33.2-158.3-29.7-177.1,4c-15.4,27.6,27,60.3,8.9,87.7
			c-16.4,24.9-58,7.9-82.9,35.2c-21.3,23.4-17.9,65.5-1.9,92.7C144.7,861.1,218.8,866.7,252.5,869.3z"/>
	</g>
</g>
<g id="Layer_2">
	<g id="XMLID_467_">
		<path id="XMLID_468_" class="st5" d="M560.1,866.5c0-3.2-82.2-5.8-183.6-5.8c-101.4,0-183.6,2.6-183.6,5.8
			c0,3.2,82.2,5.8,183.6,5.8C477.9,872.3,560.1,869.7,560.1,866.5z"/>
	</g>
	<g id="XMLID_417_">
		<polygon id="XMLID_466_" class="st6" points="400.3,858.2 355.1,858.2 361.3,813 394.2,813 		"/>
		<path id="XMLID_465_" class="st7" d="M322.2,866.5l0.8-1.3c2.9-4.4,7.8-7.1,13-7.1h77.7c5.5,0,10.5,2.9,13.3,7.5l0.5,0.8H322.2z"
			/>
		<path id="XMLID_464_" class="st7" d="M511,631.9v174.7c0,3.5-2.9,6.4-6.4,6.4H239.3c-3.5,0-6.4-2.8-6.4-6.4V631.9
			c0-0.2,0-0.3,0-0.5c0.2-4.8,4.1-8.7,8.9-8.9c0.2,0,0.3,0,0.5,0h259.5c0.1,0,0.2,0,0.3,0c4.8,0.1,8.7,4,8.9,8.9
			C511,631.6,511,631.7,511,631.9z"/>
		<path id="XMLID_463_" class="st8" d="M232.9,631.9v145.5H511V631.9c0-5.2-4.2-9.4-9.4-9.4H242.3
			C237.1,622.5,232.9,626.7,232.9,631.9z"/>
		<path id="XMLID_462_" class="st9" d="M520.3,631.6v175c0,3.5-2.9,6.4-6.4,6.4H248.5c-3.5,0-6.4-2.8-6.4-6.4v-175
			c0-0.1,0-0.2,0-0.4c0.2-4.7,4-8.5,8.7-8.7c0.1,0,0.2,0,0.4,0h259.9c0.1,0,0.2,0,0.4,0c4.7,0.2,8.5,4,8.7,8.7
			C520.3,631.4,520.3,631.5,520.3,631.6z"/>
		<path id="XMLID_461_" class="st7" d="M390.3,799.9c2.6-3.6,1.8-8.7-1.9-11.3c-3.6-2.6-8.7-1.8-11.3,1.9c-2.6,3.6-1.8,8.7,1.9,11.3
			C382.6,804.4,387.7,803.6,390.3,799.9z"/>
		<path id="XMLID_460_" class="st9" d="M331.3,866.5l0.8-1.3c2.9-4.4,7.8-7.1,13-7.1h77.7c5.5,0,10.5,2.9,13.3,7.5l0.5,0.8H331.3z"
			/>
		<path id="XMLID_459_" class="st10" d="M242.2,631.6v145.8h278.1V631.6c0-5-4.1-9.1-9.1-9.1H251.2
			C246.2,622.5,242.2,626.6,242.2,631.6z"/>
		<path id="XMLID_458_" class="st11" d="M251.3,636.9v127.5c0,2.7,2.2,5,5,5H508c2.7,0,5-2.2,5-5V636.9c0-2.7-2.2-5-5-5H256.3
			C253.5,631.9,251.3,634.1,251.3,636.9z"/>
		<polygon id="XMLID_457_" class="st7" points="406.3,858.2 361.1,858.2 367.3,813 400.2,813 		"/>
		<path id="XMLID_456_" class="st9" d="M513,653.1H251.3V634c0-1.1,0.9-2.1,2.1-2.1h257.5c1.1,0,2.1,0.9,2.1,2.1V653.1z"/>
		<path id="XMLID_455_" class="st12" d="M477.1,642.5c0-1.7-1.4-3-3-3c-1.7,0-3,1.4-3,3c0,1.7,1.4,3,3,3
			C475.8,645.5,477.1,644.2,477.1,642.5z"/>
		<path id="XMLID_454_" class="st13" d="M488.6,642.5c0-1.7-1.4-3-3-3c-1.7,0-3,1.4-3,3c0,1.7,1.4,3,3,3
			C487.2,645.5,488.6,644.2,488.6,642.5z"/>
		<path id="XMLID_453_" class="st14" d="M500,642.5c0-1.7-1.4-3-3-3c-1.7,0-3,1.4-3,3c0,1.7,1.4,3,3,3
			C498.6,645.5,500,644.2,500,642.5z"/>
		<g id="XMLID_436_">
			<rect id="XMLID_452_" x="269.3" y="668.4" class="st12" width="14.5" height="5.3"/>
			<rect id="XMLID_451_" x="291.9" y="668.4" class="st14" width="26.2" height="5.3"/>
			<rect id="XMLID_450_" x="279.3" y="679.7" class="st15" width="54.5" height="5.3"/>
			<rect id="XMLID_449_" x="341.8" y="679.7" class="st9" width="14.5" height="5.3"/>
			<rect id="XMLID_448_" x="279.3" y="691" class="st15" width="54.5" height="5.3"/>
			<rect id="XMLID_447_" x="341.8" y="691" class="st9" width="14.5" height="5.3"/>
			<rect id="XMLID_446_" x="279.3" y="702.3" class="st15" width="54.5" height="5.3"/>
			<rect id="XMLID_445_" x="341.8" y="702.3" class="st9" width="14.5" height="5.3"/>
			<rect id="XMLID_444_" x="269.3" y="713.6" class="st12" width="14.5" height="5.3"/>
			<rect id="XMLID_443_" x="291.9" y="713.6" class="st14" width="26.2" height="5.3"/>
			<rect id="XMLID_442_" x="279.3" y="724.9" class="st15" width="27.2" height="5.3"/>
			<rect id="XMLID_441_" x="314.5" y="724.9" class="st9" width="41.8" height="5.3"/>
			<rect id="XMLID_440_" x="279.3" y="736.2" class="st15" width="27.2" height="5.3"/>
			<rect id="XMLID_439_" x="314.5" y="736.2" class="st9" width="41.8" height="5.3"/>
			<rect id="XMLID_438_" x="279.3" y="747.5" class="st15" width="27.2" height="5.3"/>
			<rect id="XMLID_437_" x="314.5" y="747.5" class="st9" width="41.8" height="5.3"/>
		</g>
		<g id="XMLID_419_">
			<rect id="XMLID_435_" x="406.1" y="668.4" class="st14" width="14.5" height="5.3"/>
			<rect id="XMLID_434_" x="428.7" y="668.4" class="st13" width="26.2" height="5.3"/>
			<rect id="XMLID_433_" x="416.1" y="679.7" class="st9" width="12.6" height="5.3"/>
			<rect id="XMLID_432_" x="436.7" y="679.7" class="st15" width="56.4" height="5.3"/>
			<rect id="XMLID_431_" x="416.1" y="691" class="st9" width="12.6" height="5.3"/>
			<rect id="XMLID_430_" x="436.7" y="691" class="st12" width="56.4" height="5.3"/>
			<rect id="XMLID_429_" x="416.1" y="702.3" class="st9" width="12.6" height="5.3"/>
			<rect id="XMLID_428_" x="436.7" y="702.3" class="st15" width="56.4" height="5.3"/>
			<rect id="XMLID_427_" x="406.1" y="713.6" class="st14" width="14.5" height="5.3"/>
			<rect id="XMLID_426_" x="428.7" y="713.6" class="st13" width="26.2" height="5.3"/>
			<rect id="XMLID_425_" x="416.1" y="724.9" class="st15" width="44.8" height="5.3"/>
			<rect id="XMLID_424_" x="468.9" y="724.9" class="st9" width="24.2" height="5.3"/>
			<rect id="XMLID_423_" x="416.1" y="736.2" class="st13" width="44.8" height="5.3"/>
			<rect id="XMLID_422_" x="468.9" y="736.2" class="st9" width="24.2" height="5.3"/>
			<rect id="XMLID_421_" x="416.1" y="747.5" class="st15" width="44.8" height="5.3"/>
			<rect id="XMLID_420_" x="468.9" y="747.5" class="st9" width="24.2" height="5.3"/>
		</g>
		<line id="XMLID_418_" class="st16" x1="381.2" y1="665.4" x2="381.2" y2="761.5"/>
	</g>
	<path id="XMLID_415_" class="st5" d="M621.3,933.5c0-5.3-118.8-9.6-265.3-9.6c-146.5,0-265.3,4.3-265.3,9.6
		c0,5.3,118.8,9.6,265.3,9.6C502.6,943.1,621.3,938.8,621.3,933.5z"/>
	<g id="XMLID_398_">
		<path id="XMLID_414_" class="st9" d="M475.9,907.8h-267v20.8h300.4l-7.2-8.6C495.6,912.3,486,907.8,475.9,907.8z"/>
		<path id="XMLID_413_" class="st7" d="M227,907.8h-75.6c-2.5,0-4.5,2-4.5,4.5v11.9c0,2.5,2,4.5,4.5,4.5h109l-7.2-8.6
			C246.6,912.3,237.1,907.8,227,907.8z"/>
		<path id="XMLID_412_" class="st10" d="M199.6,899.3h-21.7c-1.1,0-1.9,0.9-1.9,1.9v6.6h25.5v-6.6
			C201.5,900.2,200.6,899.3,199.6,899.3z"/>
		<path id="XMLID_411_" class="st10" d="M236.1,899.3h-21.7c-1.1,0-1.9,0.9-1.9,1.9v6.6H238v-6.6C238,900.2,237.2,899.3,236.1,899.3
			z"/>
		<path id="XMLID_410_" class="st10" d="M272.6,899.3H251c-1.1,0-1.9,0.9-1.9,1.9v6.6h25.5v-6.6
			C274.6,900.2,273.7,899.3,272.6,899.3z"/>
		<path id="XMLID_409_" class="st10" d="M309.2,899.3h-21.7c-1.1,0-1.9,0.9-1.9,1.9v6.6h25.5v-6.6
			C311.1,900.2,310.2,899.3,309.2,899.3z"/>
		<path id="XMLID_408_" class="st10" d="M382.3,899.3h-21.7c-1.1,0-1.9,0.9-1.9,1.9v6.6h25.5v-6.6
			C384.2,900.2,383.3,899.3,382.3,899.3z"/>
		<path id="XMLID_407_" class="st10" d="M418.8,899.3h-21.7c-1.1,0-1.9,0.9-1.9,1.9v6.6h25.5v-6.6
			C420.7,900.2,419.9,899.3,418.8,899.3z"/>
		<path id="XMLID_406_" class="st10" d="M455.3,899.3h-21.7c-1.1,0-1.9,0.9-1.9,1.9v6.6h25.5v-6.6
			C457.3,900.2,456.4,899.3,455.3,899.3z"/>
		<path id="XMLID_405_" class="st11" d="M205.1,899.3h-21.7c-1.1,0-1.9,0.9-1.9,1.9v6.6H207v-6.6C207,900.2,206.1,899.3,205.1,899.3
			z"/>
		<path id="XMLID_404_" class="st11" d="M241.6,899.3H220c-1.1,0-1.9,0.9-1.9,1.9v6.6h25.5v-6.6
			C243.5,900.2,242.7,899.3,241.6,899.3z"/>
		<path id="XMLID_403_" class="st11" d="M278.2,899.3h-21.7c-1.1,0-1.9,0.9-1.9,1.9v6.6h25.5v-6.6
			C280.1,900.2,279.2,899.3,278.2,899.3z"/>
		<path id="XMLID_402_" class="st11" d="M349,899.3h-53.7c-2.3,0-4.1,1.9-4.1,4.1v4.4h62v-4.4C353.2,901.2,351.3,899.3,349,899.3z"
			/>
		<path id="XMLID_401_" class="st11" d="M387.8,899.3h-21.7c-1.1,0-1.9,0.9-1.9,1.9v6.6h25.5v-6.6
			C389.7,900.2,388.8,899.3,387.8,899.3z"/>
		<path id="XMLID_400_" class="st11" d="M424.3,899.3h-21.7c-1.1,0-1.9,0.9-1.9,1.9v6.6h25.5v-6.6
			C426.3,900.2,425.4,899.3,424.3,899.3z"/>
		<path id="XMLID_399_" class="st11" d="M460.9,899.3h-21.7c-1.1,0-1.9,0.9-1.9,1.9v6.6h25.5v-6.6
			C462.8,900.2,461.9,899.3,460.9,899.3z"/>
	</g>
	<g id="XMLID_394_">
		<path id="XMLID_397_" class="st9" d="M564.7,908.8c-42.1,0-33.2,4-37.6,20.4h87.2c2,0,3.3-2.2,2.2-3.8
			C611,916.6,587.2,908.8,564.7,908.8z"/>
		<path id="XMLID_396_" class="st7" d="M540.5,910.6c-13.4,0-18.6,6.9-19.4,15.8c-0.1,1.5,1.1,2.8,2.6,2.8h50.8
			C574.5,918.9,555.3,910.6,540.5,910.6z"/>
		<path id="XMLID_395_" class="st10" d="M561.4,909.1c-2.9-1-5.9-1.6-8.9-1.8c-1.3-0.1-1.3,1.9,0,2c2.9,0.2,5.6,0.8,8.4,1.8
			C562.1,911.5,562.6,909.5,561.4,909.1z"/>
	</g>
	<g>
		<g>
			<g>
				<g>
					<g>
						<path class="st17" d="M231.8,876.5H119.6c2-0.9,3.5-3.7,3.5-6.9c0-4-2.2-7.3-5-7.3h115.2c-2.8,0-5,3.3-5,7.3
							C228.3,872.8,229.7,875.6,231.8,876.5z"/>
					</g>
				</g>
				<g>
					<g>
						<path class="st18" d="M235.4,862.3c0,1.2-1,2.1-2.2,2.1H118.1c-1.2,0-2.1-1-2.1-2.1l0,0c0-1.2,1-2.2,2.1-2.2h115.2
							C234.5,860.2,235.4,861.1,235.4,862.3L235.4,862.3z"/>
					</g>
				</g>
				<g>
					<g>
						<path class="st18" d="M235.4,876.5c0,1.2-1,2.1-2.2,2.1H118.1c-1.2,0-2.1-1-2.1-2.1l0,0c0-1.2,1-2.1,2.1-2.1h115.2
							C234.5,874.4,235.4,875.3,235.4,876.5L235.4,876.5z"/>
					</g>
				</g>
			</g>
			<g>
				<g>
					<g>
						<path class="st17" d="M213.2,843.7h-98.4c1.8-0.8,3.1-3.2,3.1-6.1c0-3.5-2-6.4-4.4-6.4h101c-2.4,0-4.4,2.9-4.4,6.4
							C210.1,840.5,211.4,842.9,213.2,843.7z"/>
					</g>
				</g>
				<g>
					<g>
						<path class="st19" d="M216.4,831.2c0,1-0.8,1.9-1.9,1.9h-101c-1,0-1.9-0.8-1.9-1.9l0,0c0-1,0.8-1.9,1.9-1.9h101
							C215.6,829.4,216.4,830.2,216.4,831.2L216.4,831.2z"/>
					</g>
				</g>
				<g>
					<g>
						<path class="st19" d="M216.4,843.7c0,1-0.8,1.9-1.9,1.9h-101c-1,0-1.9-0.8-1.9-1.9l0,0c0-1,0.8-1.9,1.9-1.9h101
							C215.6,841.8,216.4,842.7,216.4,843.7L216.4,843.7z"/>
					</g>
				</g>
			</g>
			<g>
				<g>
					<path class="st20" d="M234,857.4c0,1.5-1.2,2.8-2.8,2.8H105c-1.5,0-2.8-1.2-2.8-2.8v-10.1c0-1.5,1.2-2.8,2.8-2.8h126.2
						c1.5,0,2.8,1.2,2.8,2.8V857.4z"/>
				</g>
			</g>
		</g>
		<g>
			<g>
				<g>
					<g>
						<path class="st21" d="M184.2,784.6c-2.6-3.6-7.6-5-13.2-3.8l1.4,5c3.4-0.7,6.3,0,7.6,1.8c1.4,2,0.8,4.7,0.2,6.1
							c-1.1,2.8-3.4,5.6-6.3,7.8l-1.4,1c-0.9,3.3-2.4,6.4-4.4,9.1c1.4-0.7,2.8-1.5,4.1-2.4l4.8-3.5c3.8-2.8,6.7-6.4,8.1-10.1
							C186.6,791.4,186.3,787.5,184.2,784.6z"/>
					</g>
				</g>
			</g>
			<g>
				<g>
					<path class="st21" d="M172.8,780.7V823c0,3.6-2.9,6.5-6.5,6.5h-23.8c-3.6,0-6.5-2.9-6.5-6.5v-42.3c0-3.6,2.9-6.5,6.5-6.5h23.8
						C169.9,774.2,172.8,777.1,172.8,780.7z"/>
				</g>
			</g>
			<g>
				<g>
					<path class="st9" d="M155.9,786.7v42.8h-13.4c-3.6,0-6.5-2.9-6.5-6.5v-41.5c1.1-0.8,2.4-1.3,3.8-1.3h9.6
						C153,780.2,155.9,783.1,155.9,786.7z"/>
				</g>
			</g>
		</g>
	</g>
</g>
<g id="Layer_3">
	<g id="XMLID_11265_">
		<path id="XMLID_6124_" class="st22" d="M500.6,713.7h55c12.7,0,23-10.3,23-23v-157"/>
		<path id="XMLID_6123_" class="st22" d="M500.6,713.7c0,5.9-4.8,10.7-10.7,10.7c-5.9,0-10.7-4.8-10.7-10.7
			c0-5.9,4.8-10.7,10.7-10.7C495.8,703,500.6,707.8,500.6,713.7z"/>
		<path id="XMLID_6122_" class="st22" d="M589.3,522.2c0,5.9-4.8,10.7-10.7,10.7c-5.9,0-10.7-4.8-10.7-10.7
			c0-5.9,4.8-10.7,10.7-10.7C584.5,511.5,589.3,516.3,589.3,522.2z"/>
	</g>
	<g>
		<g id="XMLID_14411_">
			<g id="XMLID_14440_">
				<g id="XMLID_14441_">
					<g id="XMLID_14442_">
						<g id="XMLID_14443_">
							<g id="XMLID_14445_">
								<rect id="XMLID_13415_" x="582.5" y="407.1" class="st23" width="26.6" height="74.5"/>
								<rect id="XMLID_13414_" x="584" y="407.1" class="st9" width="26.6" height="74.5"/>
								<polygon id="XMLID_13413_" class="st9" points="637.3,481.7 637.3,419.8 622.3,407.1 610.6,407.1 610.6,481.7 								"/>
							</g>
							<polygon id="XMLID_13412_" class="st23" points="622.3,419.8 637.3,419.8 622.3,407.1 							"/>
						</g>
					</g>
				</g>
			</g>
			<g id="XMLID_14433_">
				<rect id="XMLID_13411_" x="610.6" y="438.1" class="st24" width="21.5" height="6.8"/>
				<rect id="XMLID_13410_" x="589.2" y="438.1" class="st24" width="21.5" height="6.8"/>
			</g>
			<g id="XMLID_14426_">
				<rect id="XMLID_13409_" x="610.6" y="425.8" class="st24" width="21.5" height="6.8"/>
				<rect id="XMLID_13408_" x="589.2" y="425.8" class="st24" width="21.5" height="6.8"/>
			</g>
			<g id="XMLID_14419_">
				<rect id="XMLID_13407_" x="610.6" y="462.5" class="st24" width="21.5" height="6.8"/>
				<rect id="XMLID_13406_" x="589.2" y="462.5" class="st24" width="21.5" height="6.8"/>
			</g>
			<g id="XMLID_14412_">
				<rect id="XMLID_13405_" x="610.6" y="450.3" class="st24" width="21.5" height="6.8"/>
				<rect id="XMLID_13404_" x="589.2" y="450.3" class="st24" width="21.5" height="6.8"/>
			</g>
		</g>
		<g id="XMLID_14389_">
			<g id="XMLID_14390_">
				<g id="XMLID_14392_">
					<g id="XMLID_14393_">
						<g id="XMLID_14406_">
							<g id="XMLID_14407_">
								<path id="XMLID_13403_" class="st25" d="M621,441l-27.6-0.1l-1.3-2.7c-0.6-1.2-2.4-2.2-4-2.2l-21.5-0.2
									c-1.7,0-3.1,1.1-3.1,2.5l1.3,30.4c0,1.3,1.3,2.4,3,2.4h25.6h26.4c1.6,0,2.9-1.1,2.9-2.4l1.4-25.2
									C624.1,442.1,622.7,441,621,441z"/>
								<path id="XMLID_13402_" class="st26" d="M618.4,441l-27.6-0.1l-1.3-2.7c-0.6-1.2-2.4-2.2-4-2.2l-21.5-0.2
									c-1.7,0-3.1,1.1-3.1,2.5l1.4,30.4c0,1.3,1.3,2.4,2.9,2.4h25.6h26.4c1.6,0,2.9-1.1,2.9-2.4l1.3-25.2
									C621.5,442.1,620.1,441,618.4,441z"/>
								<path id="XMLID_13401_" class="st26" d="M620.3,470.3l-0.2,3c0,1.3-1.3,2.4-2.9,2.4h-26.4v-5.4H620.3z"/>
							</g>
						</g>
						<rect id="XMLID_13400_" x="562.5" y="445.2" class="st27" width="60.5" height="16.5"/>
						<rect id="XMLID_13399_" x="560.6" y="445.2" class="st9" width="60.5" height="16.5"/>
						<g id="XMLID_14399_">
							<g id="XMLID_14402_">
								<path id="XMLID_13398_" class="st28" d="M622.9,453.5c1.9,0,3.5,1.2,3.5,2.8l-1.5,28.2c0,1.5-1.5,2.7-3.3,2.7h-29.1v-33.7
									L622.9,453.5z"/>
							</g>
							<path id="XMLID_13397_" class="st28" d="M567,453.5c-1.9,0-3.5,1.2-3.5,2.8l1.5,28.2c0,1.5,1.5,2.7,3.3,2.7h25.2v-33.7
								L567,453.5z"/>
							<path id="XMLID_13396_" class="st28" d="M564.8,479.8l0.2,4.7c0,1.5,1.5,2.7,3.3,2.7h25.2v-7.3H564.8z"/>
						</g>
						<g id="XMLID_14394_">
							<g id="XMLID_14397_">
								<path id="XMLID_13395_" class="st29" d="M619.7,453.5c1.9,0,3.5,1.2,3.5,2.8l-1.5,28.2c0,1.5-1.5,2.7-3.3,2.7h-29.1v-33.7
									L619.7,453.5z"/>
							</g>
							<path id="XMLID_13394_" class="st29" d="M562.7,453.5c-1.9,0-3.5,1.2-3.5,2.8l1.5,28.2c0,1.5,1.5,2.7,3.3,2.7h25.2v-33.7
								L562.7,453.5z"/>
							<path id="XMLID_13393_" class="st29" d="M560.5,479.8l0.2,4.7c0,1.5,1.5,2.7,3.3,2.7h25.2v-7.3H560.5z"/>
						</g>
					</g>
				</g>
				<path id="XMLID_13392_" class="st30" d="M586.8,438.5c0,0.8-0.7,1.5-1.5,1.5H564c-0.8,0-1.5-0.7-1.5-1.5l0,0
					c0-0.8,0.7-1.5,1.5-1.5h21.4C586.2,437,586.8,437.7,586.8,438.5L586.8,438.5z"/>
			</g>
		</g>
		<g id="XMLID_14368_">
			<g id="XMLID_14369_">
				<g id="XMLID_14370_">
					<g id="_x38__7_">
						<g id="XMLID_14382_">
							<path id="XMLID_13391_" class="st31" d="M546.7,496.3l0.5,0.5l0,0l2.1,2l0.8,0.8c0.2,0.1,0.5,0.1,0.7-0.2l0.2-0.3l0.5-0.6
								l1-1.2l0.3-0.3l0.1-0.1h0l3-3.3l0.3-0.3l2.3-2.6l0.4-0.4c0.2-0.2,0.2-0.4,0.1-0.6l-0.6-0.5l-2.1-2L556,487
								c-0.1-0.1-0.4-0.1-0.6,0.1l-0.6,0.6l-1.1,1.1l-1.5,1.5l-2.2,2.2l-0.9,0.9l-0.4,0.4l-1.1,1.1l-0.5,0.5l-0.3,0.2
								C546.6,495.9,546.6,496.2,546.7,496.3z"/>
							<path id="XMLID_13390_" class="st32" d="M544.3,498.3l0.8,0.8l2.1,2l1.1,1.1c0.1,0.1,0.4,0,0.7-0.2l0.3-0.3l2.1-2.2l0.1-0.1
								c0.2-0.2,0.3-0.6,0.2-0.7l-0.1-0.1l-1-1l-2.1-2l-0.7-0.7l-0.1-0.1c-0.1-0.1-0.5,0-0.7,0.2l-0.1,0.1l-0.9,0.9l-1.5,1.6
								C544.2,497.8,544.1,498.1,544.3,498.3z"/>
							<path id="XMLID_13389_" class="st33" d="M525.8,516.2l1.5,1.4l2.1,2h0l1.8,1.7c0.2,0.2,0.9-0.1,1.4-0.7l17.1-18.6l1.3-1.5
								c0.4-0.4,0.6-1,0.3-1.2l0,0l-0.3-0.3l-1.1-1l0,0l-2.1-2l0,0l-0.7-0.7l-0.3-0.3l0,0c-0.2-0.2-0.7,0-1.1,0.4c0,0,0,0,0,0
								l-19.3,19.3C525.8,515.4,525.6,516,525.8,516.2z"/>
							<polygon id="XMLID_13388_" class="st32" points="548.8,493.7 549.5,494.4 551.6,496.4 552.6,497.4 552.9,497.1 553,496.9 
								553,496.9 556,493.6 556.2,493.3 556.4,493.2 555.7,492.6 555.5,492.3 553.3,490.3 552.8,489.8 552.3,490.2 550.1,492.4 
								549.2,493.3 							"/>
							<path id="XMLID_13387_" class="st33" d="M548.7,492.8l0.5,0.5l0.7,0.7l2.1,2l0.4,0.3l0.6,0.6l0.5,0.5
								c0.2,0.2,0.5,0.1,0.7-0.1l2.3-2.4c0.2-0.2,0.3-0.6,0.1-0.7l-0.6-0.6l0,0l-0.9-0.9l-2.1-2l-0.6-0.6l0,0l-0.6-0.6
								c-0.2-0.2-0.5-0.1-0.7,0.1l-1.5,1.5l-0.8,0.8C548.6,492.4,548.5,492.7,548.7,492.8z"/>
							<polygon id="XMLID_13386_" class="st34" points="527.3,517.6 529.4,519.6 529.4,519.6 550,498.1 547.9,496.1 547.8,496.1 
															"/>
						</g>
						<g id="XMLID_14371_">
							<g id="XMLID_14377_">
								<path id="XMLID_14378_" class="st32" d="M552.4,476.6c-0.1-0.2-0.1-0.4-0.2-0.7l0,0c-0.1-0.3-0.2-0.7-0.2-1.1
									c-0.1-0.2-0.1-0.5-0.1-0.7c0-0.1,0-0.1,0-0.2c0,0,0,0,0-0.1l0,0c-0.2-1.3-0.3-2.7-0.2-4.1v0c0-0.2,0-0.5,0.1-0.7
									c0-0.2,0-0.5,0.1-0.7c0.1-0.9,0.3-1.9,0.5-2.8l0,0c0.1-0.3,0.2-0.6,0.3-0.9c0.1-0.3,0.2-0.6,0.3-1c0.2-0.5,0.4-1,0.6-1.5
									c0-0.1,0.1-0.2,0.1-0.2c0.1-0.2,0.2-0.3,0.2-0.5c0-0.1,0.1-0.2,0.1-0.2c0.3-0.6,0.7-1.3,1.1-1.9c0-0.1,0.1-0.1,0.1-0.2
									c0.1-0.1,0.1-0.2,0.2-0.3c0.1-0.1,0.1-0.2,0.2-0.2c0.1-0.1,0.1-0.2,0.2-0.2c0.8-1.1,1.7-2,2.7-2.9c1.4-1.3,3-2.4,4.8-3.2
									c3.2-1.6,6.9-2.3,10.8-2c1.1,0.1,2.1,0.3,3.1,0.5l0,0c5.1,1.3,9.4,4.4,12.2,8.6c0,0,0.1,0.1,0.1,0.1l0,0
									c0.1,0.2,0.2,0.3,0.3,0.5c0.2,0.3,0.3,0.5,0.5,0.8c0,0.1,0.1,0.1,0.1,0.2c0.1,0.2,0.3,0.5,0.4,0.8c0,0.1,0.1,0.1,0.1,0.2
									c0.2,0.3,0.3,0.7,0.5,1c0.1,0.3,0.2,0.6,0.3,0.9c0.2,0.4,0.3,0.9,0.4,1.3c0.5,1.7,0.8,3.5,0.8,5.4c0,0,0,0.1,0,0.1
									c0,0,0,0,0,0c0,0.2,0,0.4,0,0.6c0,0.2,0,0.4,0,0.6c0,0.1,0,0.1,0,0.2c0,0.1,0,0.1,0,0.2c0,0.1,0,0.2,0,0.3
									c0,0.1,0,0.1,0,0.2c-0.1,0.7-0.2,1.3-0.3,1.9l0,0c-0.1,0.4-0.2,0.8-0.3,1.2c0,0,0,0.1,0,0.1c-0.2,0.9-0.5,1.8-0.9,2.6
									c0,0.1-0.1,0.1-0.1,0.2v0c0,0,0,0,0,0c0,0,0,0,0,0c-0.1,0.2-0.1,0.3-0.2,0.5c0,0.1-0.1,0.2-0.1,0.3c0,0,0,0.1-0.1,0.1
									c-0.2,0.4-0.3,0.7-0.5,1c-0.2,0.4-0.4,0.8-0.7,1.1c-0.2,0.3-0.4,0.6-0.6,0.8c-0.2,0.2-0.3,0.4-0.5,0.6
									c0,0.1-0.1,0.1-0.1,0.1c0,0,0,0,0,0c-0.3,0.4-0.6,0.8-1,1.1c-0.1,0.1-0.1,0.1-0.2,0.2c0,0-0.1,0.1-0.1,0.1
									c-0.1,0.1-0.2,0.3-0.4,0.4c-0.6,0.6-1.2,1.1-1.8,1.6c-0.2,0.2-0.5,0.4-0.8,0.6c0,0-0.1,0-0.1,0.1l0,0
									c-0.1,0-0.1,0.1-0.2,0.1c0,0-0.1,0.1-0.2,0.1c-0.5,0.3-0.9,0.6-1.4,0.9c0,0,0,0,0,0c-0.1,0-0.2,0.1-0.3,0.1
									c-0.3,0.2-0.6,0.3-0.9,0.4c-0.1,0-0.2,0.1-0.3,0.1c-0.1,0-0.2,0.1-0.2,0.1c-0.5,0.2-0.9,0.4-1.4,0.6
									c-0.1,0.1-0.3,0.1-0.4,0.2l0,0c-0.1,0-0.3,0.1-0.4,0.1c-0.1,0-0.3,0.1-0.5,0.1c-0.1,0-0.1,0-0.2,0c-0.1,0-0.2,0-0.3,0.1
									c-0.1,0-0.2,0.1-0.3,0.1c-0.1,0-0.2,0-0.3,0.1c-0.6,0.1-1.2,0.2-1.8,0.3c0,0,0,0-0.1,0c0,0,0,0,0,0c-0.2,0-0.4,0-0.6,0.1
									c-0.1,0-0.2,0-0.3,0l0,0c-0.1,0-0.2,0-0.3,0c-0.2,0-0.5,0-0.7,0c-0.3,0-0.5,0-0.8,0c-0.1,0-0.2,0-0.3,0c-0.2,0-0.4,0-0.6,0
									c-0.2,0-0.5,0-0.7,0c-0.1,0-0.1,0-0.2,0c0,0,0,0,0,0c-0.4,0-0.8-0.1-1.2-0.1c-0.6-0.1-1.1-0.2-1.7-0.3
									c-0.3-0.1-0.6-0.1-0.8-0.2c0,0-0.1,0-0.1,0c-0.4-0.1-0.8-0.2-1.2-0.4c-0.1,0-0.1,0-0.2-0.1h0c0,0,0,0-0.1,0
									c-0.1,0-0.2-0.1-0.2-0.1l0,0c-0.1,0-0.1-0.1-0.2-0.1c-0.4-0.2-0.8-0.3-1.2-0.5c-0.1,0-0.1,0-0.1-0.1l0,0
									c-0.1,0-0.2-0.1-0.3-0.1c-0.1,0-0.1-0.1-0.2-0.1c-0.4-0.2-0.8-0.4-1.1-0.6c-0.1-0.1-0.3-0.2-0.4-0.2c-0.1,0-0.1-0.1-0.2-0.1
									c-0.4-0.2-0.7-0.5-1-0.7c-0.1-0.1-0.1-0.1-0.2-0.2c0,0-0.1-0.1-0.1-0.1c-0.1,0-0.1-0.1-0.2-0.1c-0.2-0.2-0.5-0.4-0.7-0.6
									c-0.1-0.1-0.2-0.1-0.2-0.2l0,0c0,0-0.1-0.1-0.1-0.1c-0.1-0.1-0.1-0.1-0.2-0.2c0,0-0.1-0.1-0.1-0.1c0,0,0,0-0.1-0.1
									c-0.3-0.3-0.6-0.6-0.9-0.8c-0.1-0.1-0.2-0.2-0.3-0.3c0-0.1-0.1-0.1-0.1-0.2c-0.3-0.3-0.5-0.6-0.8-0.9l0,0
									c-0.1-0.1-0.2-0.2-0.3-0.3c0-0.1-0.1-0.1-0.1-0.2c-0.2-0.3-0.5-0.6-0.7-1c-0.1-0.1-0.1-0.2-0.2-0.2c0,0-0.1-0.1-0.1-0.1
									c0,0,0,0,0,0c0-0.1-0.1-0.1-0.1-0.2c-0.1-0.1-0.1-0.2-0.2-0.3c-0.1-0.1-0.2-0.3-0.2-0.4c-0.1-0.2-0.2-0.4-0.3-0.6l0,0
									c-0.1-0.2-0.2-0.3-0.2-0.4c-0.1-0.1-0.1-0.3-0.2-0.4c-0.2-0.4-0.4-0.8-0.5-1.2C552.8,477.9,552.5,477.3,552.4,476.6z
									 M552.7,485.1c0.7,0.9,1.4,1.8,2.2,2.6c0.2,0.2,0.3,0.3,0.5,0.5c0.7,0.7,1.4,1.3,2.2,1.9c0.3,0.2,0.6,0.5,0.9,0.7
									c0.2,0.1,0.4,0.3,0.6,0.4c0.7,0.4,1.4,0.8,2.1,1.2c0.6,0.3,1.3,0.6,2,0.9c1,0.4,2.1,0.8,3.3,1c0.1,0,0.2,0.1,0.4,0.1
									c0.2,0,0.4,0.1,0.6,0.1c0.5,0.1,0.9,0.2,1.4,0.2c0,0,0,0,0,0c0.3,0,0.6,0.1,0.8,0.1c0.1,0,0.3,0,0.4,0c0.1,0,0.1,0,0.2,0
									c0.4,0,0.8,0.1,1.2,0.1c0.1,0,0.2,0,0.3,0c0.1,0,0.2,0,0.3,0c0.1,0,0.1,0,0.1,0c0.4,0,0.8,0,1.2,0c0,0,0.1,0,0.1,0
									c0.2,0,0.3,0,0.5,0c0,0,0.1,0,0.1,0c0.1,0,0.2,0,0.3,0c0.6-0.1,1.2-0.1,1.8-0.2c0,0,0.1,0,0.1,0c0.2,0,0.4-0.1,0.5-0.1
									c0.1,0,0.2,0,0.3-0.1c0.1,0,0.2,0,0.3-0.1c0,0,0,0,0,0c0.6-0.1,1.2-0.3,1.8-0.5c0.1,0,0.2,0,0.2-0.1
									c0.2-0.1,0.4-0.1,0.5-0.2c0.1,0,0.2-0.1,0.3-0.1c0.2-0.1,0.5-0.2,0.7-0.3c0.1,0,0.2-0.1,0.3-0.1c0.2-0.1,0.4-0.2,0.6-0.3
									c0.5-0.2,0.9-0.4,1.4-0.7c0.3-0.1,0.6-0.3,0.9-0.5c0.7-0.4,1.4-0.9,2.1-1.3c0.1,0,0.1-0.1,0.2-0.1c0,0,0,0,0,0
									c0.2-0.2,0.4-0.3,0.6-0.5c0.6-0.5,1.3-1,1.8-1.6c0.2-0.2,0.3-0.3,0.5-0.5c0.1-0.1,0.1-0.1,0.2-0.2c0.6-0.6,1.1-1.2,1.6-1.9
									c0.2-0.3,0.4-0.5,0.6-0.8c0.5-0.7,1-1.4,1.4-2.2c0.2-0.3,0.3-0.6,0.5-0.9c0.4-0.8,0.8-1.7,1.1-2.5c0.1-0.4,0.3-0.7,0.4-1.1
									c0.1-0.3,0.2-0.7,0.3-1c0.1-0.3,0.2-0.6,0.2-0.9c0.2-1,0.4-2.1,0.5-3.2c0.1-1.6,0.1-3.2-0.1-4.7c0-0.4-0.1-0.8-0.2-1.2
									c-0.1-0.5-0.2-1.1-0.3-1.6l0,0c0,0,0-0.1,0-0.1c-0.4-1.6-0.9-3.2-1.6-4.6c-1.2-2.5-2.8-4.8-4.7-6.8c-1.5-1.5-3.1-2.8-5-3.8
									c-3-1.7-6.4-2.8-10-3.2c-2.7-0.2-5.4,0-7.9,0.6c-1.8,0.4-3.5,1.1-5.1,1.9c-3.2,1.7-6.1,4.1-8.3,7c-0.8,1-1.4,2.1-2,3.2
									c-0.2,0.5-0.5,0.9-0.7,1.4c-0.1,0.2-0.1,0.3-0.2,0.5c-0.7,1.8-1.3,3.7-1.6,5.7c-0.1,0.5-0.1,1-0.2,1.5c0,0.2,0,0.5,0,0.7
									c0,0.2,0,0.4,0,0.6c0,0.3,0,0.5,0,0.8c0,0.6,0,1.2,0.1,1.8c0.1,0.9,0.2,1.7,0.3,2.6c0.1,0.7,0.3,1.4,0.5,2.1
									C549.8,480.2,551,482.8,552.7,485.1z"/>
							</g>
							<g id="XMLID_14372_">
								<path id="XMLID_14373_" class="st35" d="M552.7,478.9L552.7,478.9c0.1,0.2,0.2,0.5,0.3,0.7c0,0.1,0.1,0.2,0.1,0.3
									c0.2,0.4,0.4,0.8,0.5,1.1c3,6,8.8,10.4,15.8,11.4c0.4,0.1,0.8,0.1,1.2,0.1c0.1,0,0.1,0,0.2,0c0.5,0,1.1,0.1,1.6,0.1
									c0.7,0,1.4,0,2.2-0.1c0.8-0.1,1.6-0.2,2.5-0.4c0.7-0.2,1.3-0.3,2-0.5c0.2-0.1,0.3-0.1,0.5-0.2c1.9-0.7,3.6-1.6,5.2-2.7l0,0
									c3.4-2.4,6.1-5.8,7.6-9.8c0.1-0.4,0.3-0.7,0.4-1.1c0.3-1,0.6-2.1,0.7-3.1v0c0.1-0.4,0.1-0.8,0.2-1.3c0,0,0-0.1,0-0.1
									c0-0.1,0-0.1,0-0.2c0-0.2,0-0.5,0-0.7c0.1-2.6-0.3-5.1-1-7.5l0,0c0-0.1-0.1-0.2-0.1-0.3v0c-0.1-0.2-0.1-0.4-0.2-0.5
									c-0.2-0.4-0.3-0.8-0.5-1.2c-0.1-0.1-0.1-0.2-0.2-0.4c0,0,0,0,0-0.1c-0.1-0.2-0.2-0.4-0.3-0.5c-0.2-0.4-0.4-0.8-0.6-1.2
									c-2.7-4.7-7.2-8.2-12.6-9.8l0,0c-1.3-0.4-2.6-0.6-4-0.7c-4-0.3-7.9,0.5-11.2,2.1c-3.2,1.6-5.9,4-8,6.9
									c0,0.1-0.1,0.1-0.1,0.2c-0.4,0.6-0.8,1.2-1.2,1.9c-0.1,0.1-0.1,0.2-0.2,0.3c-0.3,0.7-0.7,1.4-0.9,2.1
									c-0.7,1.8-1.2,3.8-1.4,5.9c-0.2,2.8,0.1,5.5,0.8,8C552.4,478.1,552.5,478.5,552.7,478.9z M573.3,451.1L573.3,451.1
									c0.2,0,0.3,0,0.5,0c5.8,0.5,10.8,3.4,14,7.7c0.3,0.4,0.6,0.8,0.9,1.2c0,0,0,0,0,0c0.2,0.3,0.4,0.6,0.6,1
									c0,0.1,0.1,0.1,0.1,0.2c0.2,0.3,0.3,0.6,0.5,0.9c1.1,2.2,1.8,4.7,2,7.2c0,0.4,0,0.8,0.1,1.3c0,0.1,0,0.2,0,0.4
									c0,0.2,0,0.4,0,0.6c0,0.3,0,0.7-0.1,1c-0.1,1-0.2,1.9-0.5,2.9c-0.2,0.7-0.3,1.3-0.6,1.9c-0.2,0.6-0.5,1.3-0.8,1.9
									c-0.2,0.5-0.5,1-0.8,1.5c-0.2,0.3-0.4,0.6-0.6,0.9c-0.7,1-1.4,2-2.2,2.9c-0.5,0.5-1,1-1.5,1.5c-0.4,0.4-0.9,0.7-1.3,1.1
									c-0.1,0.1-0.2,0.2-0.3,0.2l0,0c-0.5,0.4-1,0.7-1.6,1c-0.5,0.3-1,0.6-1.6,0.8c-0.5,0.2-1,0.4-1.6,0.6
									c-0.2,0.1-0.4,0.1-0.6,0.2c-0.4,0.1-0.8,0.2-1.3,0.3c-0.7,0.2-1.5,0.3-2.3,0.4c-1.2,0.1-2.4,0.2-3.6,0.1c-0.2,0-0.3,0-0.5,0
									c-4.3-0.4-8.1-2.1-11.1-4.6c-0.3-0.3-0.6-0.6-0.9-0.9c-2-2-3.7-4.4-4.7-7c-0.2-0.4-0.3-0.8-0.4-1.2
									c-0.1-0.2-0.1-0.3-0.2-0.5c0,0,0,0,0,0c0-0.1-0.1-0.2-0.1-0.3c0,0,0,0,0,0c-0.1-0.4-0.2-0.8-0.3-1.2
									c-0.4-1.8-0.5-3.8-0.3-5.7c0.1-1.7,0.5-3.3,1-4.8c0.5-1.5,1.2-2.9,2-4.1c0.2-0.4,0.5-0.7,0.8-1.1c0.1-0.1,0.1-0.2,0.2-0.3h0
									C560.2,453.8,566.5,450.7,573.3,451.1z"/>
							</g>
						</g>
					</g>
					<path id="_x39__4_" class="st36" d="M589.6,478.2c1.6-3.8,2-8.1,0.9-12.1c-1.2-4.3-3.1-8.2-6.8-10.8c-1.7-1.2-3.6-2-5.5-2.6
						c-1-0.3-1.9-0.5-2.9-0.6c-0.7-0.1-2.1,0.2-2.8-0.1c3.3,1.4,6.5,3.3,8.8,6.2c2.8,3.6,3.7,8.5,2.6,12.9c-0.5,2.2-1.6,4.3-3,6
						c-1.6,1.9-4.1,2.7-5.7,4.5c-1.1,1.2-1.9,2.6-2,4.2c-0.3,4.8,5.5,3.4,8.1,2C585,485.7,588,482.2,589.6,478.2z"/>
				</g>
			</g>
		</g>
	</g>
</g>
<g id="Layer_5">
	<g id="XMLID_248_">
		<path id="XMLID_251_" class="st22" d="M285.9,749h-24c-12.7,0-23-10.3-23-23V288.3"/>
		<path id="XMLID_250_" class="st22" d="M285.9,749c0,5.9,4.8,10.7,10.7,10.7c5.9,0,10.7-4.8,10.7-10.7c0-5.9-4.8-10.7-10.7-10.7
			C290.7,738.3,285.9,743.1,285.9,749z"/>
		<path id="XMLID_249_" class="st22" d="M228.2,279.2c0,5.9,4.8,10.7,10.7,10.7c5.9,0,10.7-4.8,10.7-10.7c0-5.9-4.8-10.7-10.7-10.7
			C233,268.5,228.2,273.3,228.2,279.2z"/>
	</g>
	<g>
		<g id="XMLID_191_">
			<g id="XMLID_192_">
				<g id="XMLID_194_">
					<g id="XMLID_195_">
						<path id="XMLID_247_" class="st37" d="M234.8,261.1c-1,0-1.8,0.6-1.8,1.3c0,0.7,0.8,1.3,1.8,1.3h11.4h11.4
							c1,0,1.8-0.6,1.8-1.3c0-0.7-0.8-1.3-1.8-1.3h-11.4H234.8z"/>
						<polygon id="XMLID_246_" class="st38" points="242.4,243.5 235.4,243.5 235.4,261.1 242.4,261.1 249.4,261.1 249.4,243.5 
													"/>
						<path id="XMLID_245_" class="st39" d="M225.4,261.1c-1,0-1.8,0.6-1.8,1.3c0,0.7,0.8,1.3,1.8,1.3h11.4h11.4
							c1,0,1.8-0.6,1.8-1.3c0-0.7-0.8-1.3-1.8-1.3h-11.4H225.4z"/>
						<polygon id="XMLID_244_" class="st37" points="237.9,243.5 230.9,243.5 230.9,261.1 237.9,261.1 244.9,261.1 244.9,243.5 
													"/>
						<rect id="XMLID_243_" x="230.9" y="243.5" class="st40" width="18.6" height="12.5"/>
						<g id="XMLID_196_">
							<g id="XMLID_241_">
								<path id="XMLID_242_" class="st37" d="M267.7,217.1v34.8c0,0.7-0.5,1.2-1.2,1.2h-51.6c-0.7,0-1.2-0.5-1.2-1.2v-34.8
									c0-0.7,0.5-1.2,1.2-1.2h51.6C267.1,215.9,267.7,216.4,267.7,217.1z"/>
							</g>
							<g id="XMLID_239_">
								<path id="XMLID_240_" class="st39" d="M264.9,217.1v34.8c0,0.7-0.5,1.2-1.2,1.2h-51.6c-0.7,0-1.2-0.5-1.2-1.2v-34.8
									c0-0.7,0.5-1.2,1.2-1.2h51.6C264.3,215.9,264.9,216.4,264.9,217.1z"/>
							</g>
							<g id="XMLID_237_">
								<path id="XMLID_238_" class="st41" d="M262.9,250c0,0.7-0.5,1.2-1.2,1.2h-47.7c-0.7,0-1.2-0.5-1.2-1.2v-31.1
									c0-0.7,0.5-1.2,1.2-1.2h47.7c0.7,0,1.2,0.5,1.2,1.2V250z"/>
							</g>
							<g id="XMLID_197_">
								<g id="XMLID_199_">
									<g id="XMLID_200_">
										<g id="XMLID_230_">
											<g id="XMLID_231_">
												<path id="XMLID_234_" class="st25" d="M248.8,227.4l-9.5,0l-0.4-0.9c-0.2-0.4-0.8-0.8-1.4-0.8l-7.4-0.1
													c-0.6,0-1.1,0.4-1.1,0.9l0.5,10.5c0,0.4,0.5,0.8,1,0.8h8.8h9.1c0.6,0,1-0.4,1-0.8l0.5-8.7
													C249.8,227.8,249.3,227.4,248.8,227.4z"/>
												<path id="XMLID_233_" class="st26" d="M247.9,227.4l-9.5,0l-0.4-0.9c-0.2-0.4-0.8-0.8-1.4-0.8l-7.4-0.1
													c-0.6,0-1.1,0.4-1.1,0.9l0.5,10.5c0,0.4,0.5,0.8,1,0.8h8.8h9.1c0.6,0,1-0.4,1-0.8l0.5-8.7
													C248.9,227.8,248.5,227.4,247.9,227.4z"/>
												<path id="XMLID_232_" class="st26" d="M248.5,237.5l-0.1,1c0,0.4-0.5,0.8-1,0.8h-9.1v-1.8H248.5z"/>
											</g>
										</g>
										<rect id="XMLID_229_" x="228.6" y="228.8" class="st27" width="20.9" height="5.7"/>
										<rect id="XMLID_228_" x="227.9" y="228.8" class="st9" width="20.9" height="5.7"/>
										<g id="XMLID_223_">
											<g id="XMLID_226_">
												<path id="XMLID_227_" class="st28" d="M249.4,231.7c0.7,0,1.2,0.4,1.2,1l-0.5,9.7c0,0.5-0.5,0.9-1.1,0.9h-10v-11.6
													L249.4,231.7z"/>
											</g>
											<path id="XMLID_225_" class="st28" d="M230.1,231.7c-0.7,0-1.2,0.4-1.2,1l0.5,9.7c0,0.5,0.5,0.9,1.1,0.9h8.7v-11.6
												L230.1,231.7z"/>
											<path id="XMLID_224_" class="st28" d="M229.4,240.8l0.1,1.6c0,0.5,0.5,0.9,1.1,0.9h8.7v-2.5H229.4z"/>
										</g>
										<g id="XMLID_201_">
											<g id="XMLID_204_">
												<path id="XMLID_222_" class="st29" d="M248.3,231.7c0.7,0,1.2,0.4,1.2,1l-0.5,9.7c0,0.5-0.5,0.9-1.1,0.9h-10v-11.6
													L248.3,231.7z"/>
											</g>
											<path id="XMLID_203_" class="st29" d="M228.6,231.7c-0.7,0-1.2,0.4-1.2,1l0.5,9.7c0,0.5,0.5,0.9,1.1,0.9h8.7v-11.6
												L228.6,231.7z"/>
											<path id="XMLID_202_" class="st29" d="M227.9,240.8l0.1,1.6c0,0.5,0.5,0.9,1.1,0.9h8.7v-2.5H227.9z"/>
										</g>
									</g>
								</g>
								<path id="XMLID_198_" class="st30" d="M237,226.5c0,0.3-0.2,0.5-0.5,0.5h-7.4c-0.3,0-0.5-0.2-0.5-0.5l0,0
									c0-0.3,0.2-0.5,0.5-0.5h7.4C236.7,226,237,226.2,237,226.5L237,226.5z"/>
							</g>
						</g>
					</g>
				</g>
				<path id="XMLID_193_" class="st42" d="M212.9,250v-31.1c0-0.7,0.5-1.2,1.2-1.2h47.7L212.9,250z"/>
			</g>
		</g>
		<g id="XMLID_172_">
			<g id="XMLID_174_">
				<path id="XMLID_177_" class="st9" d="M203.9,248.3h-2.5c-0.4,0-0.6-0.3-0.6-0.6c0-0.4,0.3-0.6,0.6-0.6h2.5
					c0.4,0,0.6,0.3,0.6,0.6C204.6,248,204.3,248.3,203.9,248.3z M198.9,248.3h-2.5c-0.3,0-0.6-0.3-0.6-0.6c0-0.4,0.3-0.6,0.6-0.6
					h2.5c0.3,0,0.6,0.3,0.6,0.6C199.5,248,199.2,248.3,198.9,248.3z M193.8,248.3h-2.5c-0.4,0-0.6-0.3-0.6-0.6
					c0-0.4,0.3-0.6,0.6-0.6h2.5c0.3,0,0.6,0.3,0.6,0.6C194.5,248,194.2,248.3,193.8,248.3z M188.8,248.3h-2.5
					c-0.3,0-0.6-0.3-0.6-0.6c0-0.4,0.3-0.6,0.6-0.6h2.5c0.3,0,0.6,0.3,0.6,0.6C189.4,248,189.1,248.3,188.8,248.3z M183.7,248.3
					h-2.5c-0.4,0-0.6-0.3-0.6-0.6c0-0.4,0.3-0.6,0.6-0.6h2.5c0.4,0,0.6,0.3,0.6,0.6C184.3,248,184,248.3,183.7,248.3z M178.6,248.3
					h-2.5c-0.3,0-0.6-0.3-0.6-0.6c0-0.4,0.3-0.6,0.6-0.6h2.5c0.3,0,0.6,0.3,0.6,0.6C179.3,248,179,248.3,178.6,248.3z M173.6,248.3
					H171c-0.4,0-0.6-0.3-0.6-0.6c0-0.4,0.3-0.6,0.6-0.6h2.5c0.3,0,0.6,0.3,0.6,0.6C174.2,248,173.9,248.3,173.6,248.3z M168.5,248.3
					H166c-0.3,0-0.6-0.3-0.6-0.6c0-0.4,0.3-0.6,0.6-0.6h2.5c0.3,0,0.6,0.3,0.6,0.6C169.1,248,168.9,248.3,168.5,248.3z M165.5,246.3
					c-0.4,0-0.6-0.3-0.6-0.6v-2.5c0-0.3,0.3-0.6,0.6-0.6c0.3,0,0.6,0.3,0.6,0.6v2.5C166.1,246,165.8,246.3,165.5,246.3z
					 M165.5,241.2c-0.4,0-0.6-0.3-0.6-0.6v-2.5c0-0.3,0.3-0.6,0.6-0.6c0.3,0,0.6,0.3,0.6,0.6v2.5
					C166.1,240.9,165.8,241.2,165.5,241.2z M165.5,236.2c-0.4,0-0.6-0.3-0.6-0.6V233c0-0.4,0.3-0.6,0.6-0.6c0.3,0,0.6,0.3,0.6,0.6
					v2.5C166.1,235.9,165.8,236.2,165.5,236.2z M165.5,231.1c-0.4,0-0.6-0.3-0.6-0.6v-2.5c0-0.3,0.3-0.6,0.6-0.6
					c0.3,0,0.6,0.3,0.6,0.6v2.5C166.1,230.8,165.8,231.1,165.5,231.1z M165.5,226c-0.4,0-0.6-0.3-0.6-0.6v-1c0-0.4,0.3-0.6,0.6-0.6
					c0.3,0,0.6,0.3,0.6,0.6v1C166.1,225.7,165.8,226,165.5,226z"/>
				<g id="XMLID_175_">
					<polygon id="XMLID_176_" class="st9" points="168.6,225.3 165.5,219.8 162.3,225.3 					"/>
				</g>
			</g>
			<path id="XMLID_173_" class="st9" d="M205.9,247.7c0-1.3-0.9-2.3-2-2.3c-1.1,0-2,1-2,2.3c0,1.3,0.9,2.3,2,2.3
				C205,249.9,205.9,248.9,205.9,247.7z"/>
		</g>
		<g id="XMLID_152_">
			<g id="XMLID_153_">
				<g id="XMLID_154_">
					<g id="XMLID_156_">
						<path id="XMLID_159_" class="st9" d="M243.6,209.9c-0.4,0-0.6-0.3-0.6-0.6v-0.9c0-0.3,0.3-0.6,0.6-0.6c0.3,0,0.6,0.3,0.6,0.6
							v0.9C244.2,209.6,243.9,209.9,243.6,209.9z M243.6,206.5c-0.4,0-0.6-0.3-0.6-0.6v-2.5c0-0.4,0.3-0.6,0.6-0.6
							c0.3,0,0.6,0.3,0.6,0.6v2.5C244.2,206.2,243.9,206.5,243.6,206.5z M243.6,201.4c-0.4,0-0.6-0.3-0.6-0.6v-2.5
							c0-0.3,0.3-0.6,0.6-0.6c0.3,0,0.6,0.3,0.6,0.6v2.5C244.2,201.1,243.9,201.4,243.6,201.4z M243.6,196.4c-0.4,0-0.6-0.3-0.6-0.6
							v-2.5c0-0.3,0.3-0.6,0.6-0.6c0.3,0,0.6,0.3,0.6,0.6v2.5C244.2,196.1,243.9,196.4,243.6,196.4z M243.6,191.3
							c-0.4,0-0.6-0.3-0.6-0.6v-2.5c0-0.3,0.3-0.6,0.6-0.6c0.3,0,0.6,0.3,0.6,0.6v2.5C244.2,191,243.9,191.3,243.6,191.3z
							 M243.6,186.2c-0.4,0-0.6-0.3-0.6-0.6v-0.5h-0.7c-0.4,0-0.6-0.3-0.6-0.6c0-0.4,0.3-0.6,0.6-0.6h1.4c0.3,0,0.6,0.3,0.6,0.6v1.2
							C244.2,186,243.9,186.2,243.6,186.2z M239.7,185.1h-2.5c-0.4,0-0.6-0.3-0.6-0.6c0-0.4,0.3-0.6,0.6-0.6h2.5
							c0.4,0,0.6,0.3,0.6,0.6C240.3,184.8,240,185.1,239.7,185.1z M234.6,185.1h-2.5c-0.3,0-0.6-0.3-0.6-0.6c0-0.4,0.3-0.6,0.6-0.6
							h2.5c0.3,0,0.6,0.3,0.6,0.6C235.3,184.8,235,185.1,234.6,185.1z M229.6,185.1H227c-0.4,0-0.6-0.3-0.6-0.6
							c0-0.4,0.3-0.6,0.6-0.6h2.5c0.4,0,0.6,0.3,0.6,0.6C230.2,184.8,229.9,185.1,229.6,185.1z M224.5,185.1H222
							c-0.3,0-0.6-0.3-0.6-0.6c0-0.4,0.3-0.6,0.6-0.6h2.5c0.3,0,0.6,0.3,0.6,0.6C225.1,184.8,224.8,185.1,224.5,185.1z M219.4,185.1
							h-2.5c-0.3,0-0.6-0.3-0.6-0.6c0-0.4,0.3-0.6,0.6-0.6h2.5c0.3,0,0.6,0.3,0.6,0.6C220.1,184.8,219.8,185.1,219.4,185.1z
							 M214.4,185.1h-2.5c-0.3,0-0.6-0.3-0.6-0.6c0-0.4,0.3-0.6,0.6-0.6h2.5c0.3,0,0.6,0.3,0.6,0.6
							C215,184.8,214.7,185.1,214.4,185.1z"/>
						<g id="XMLID_157_">
							<polygon id="XMLID_158_" class="st9" points="240.4,208.3 243.6,213.8 246.7,208.3 							"/>
						</g>
					</g>
					<path id="XMLID_155_" class="st9" d="M213.8,184.4c0-1-0.9-1.7-2-1.7c-1.1,0-2,0.8-2,1.7c0,1,0.9,1.7,2,1.7
						C212.9,186.2,213.8,185.4,213.8,184.4z"/>
				</g>
			</g>
		</g>
		<g id="XMLID_149_">
			<path id="XMLID_151_" class="st27" d="M187.2,177.9c0.5,0,1-0.1,1.5-0.1c10.5,0,19.1,8.6,19.1,19.1c0,10.5-8.6,19.1-19.1,19.1
				H167l-7.7-52.4h7.7C176.1,163.7,184.2,169.6,187.2,177.9z"/>
			<path id="XMLID_150_" class="st43" d="M137.6,177.9c0.5,0,1,0,1.5,0.1c3-8.3,11.1-14.2,20.2-14.2c0.9,0,1.7,0.1,2.6,0.2
				c8.1,1,14.9,6.5,17.7,14.1c0.5,0,1-0.1,1.5-0.1c10.5,0,19.1,8.6,19.1,19.1c0,10.5-8.6,19.1-19.1,19.1h-21.7h-21.7
				c-10.5,0-19.1-8.6-19.1-19.1C118.5,186.4,127,177.9,137.6,177.9z"/>
		</g>
		<g id="XMLID_128_">
			<g id="XMLID_130_">
				<g id="XMLID_131_">
					<g id="XMLID_144_">
						<g id="XMLID_145_">
							<path id="XMLID_148_" class="st25" d="M176.4,184.1l-14.2,0l-0.7-1.4c-0.3-0.6-1.2-1.1-2.1-1.1l-11.1-0.1
								c-0.9,0-1.6,0.6-1.6,1.3l0.7,15.6c0,0.7,0.7,1.2,1.5,1.2h13.2h13.6c0.8,0,1.5-0.5,1.5-1.2l0.7-13
								C178,184.7,177.3,184.1,176.4,184.1z"/>
							<path id="XMLID_147_" class="st26" d="M175.1,184.1l-14.2,0l-0.7-1.4c-0.3-0.6-1.2-1.1-2.1-1.1l-11.1-0.1
								c-0.9,0-1.6,0.6-1.6,1.3l0.7,15.6c0,0.7,0.7,1.2,1.5,1.2h13.2h13.6c0.8,0,1.5-0.5,1.5-1.2l0.7-13
								C176.7,184.7,175.9,184.1,175.1,184.1z"/>
							<path id="XMLID_146_" class="st26" d="M176,199.1l-0.1,1.5c0,0.7-0.7,1.2-1.5,1.2h-13.6v-2.8H176z"/>
						</g>
					</g>
					<rect id="XMLID_143_" x="146.3" y="186.2" class="st27" width="31.1" height="8.5"/>
					<rect id="XMLID_142_" x="145.3" y="186.2" class="st9" width="31.1" height="8.5"/>
					<g id="XMLID_137_">
						<g id="XMLID_140_">
							<path id="XMLID_141_" class="st28" d="M177.3,190.5c1,0,1.8,0.6,1.8,1.4l-0.8,14.5c0,0.7-0.8,1.4-1.7,1.4h-15v-17.3
								L177.3,190.5z"/>
						</g>
						<path id="XMLID_139_" class="st28" d="M148.6,190.5c-1,0-1.8,0.6-1.8,1.4l0.8,14.5c0,0.7,0.8,1.4,1.7,1.4h13v-17.3
							L148.6,190.5z"/>
						<path id="XMLID_138_" class="st28" d="M147.5,204l0.1,2.4c0,0.7,0.8,1.4,1.7,1.4h13V204H147.5z"/>
					</g>
					<g id="XMLID_132_">
						<g id="XMLID_135_">
							<path id="XMLID_136_" class="st29" d="M175.7,190.5c1,0,1.8,0.6,1.8,1.4l-0.8,14.5c0,0.7-0.8,1.4-1.7,1.4h-15v-17.3
								L175.7,190.5z"/>
						</g>
						<path id="XMLID_134_" class="st29" d="M146.4,190.5c-1,0-1.8,0.6-1.8,1.4l0.8,14.5c0,0.7,0.8,1.4,1.7,1.4h13v-17.3
							L146.4,190.5z"/>
						<path id="XMLID_133_" class="st29" d="M145.3,204l0.1,2.4c0,0.7,0.8,1.4,1.7,1.4h13V204H145.3z"/>
					</g>
				</g>
			</g>
			<path id="XMLID_129_" class="st30" d="M158.8,182.8c0,0.4-0.3,0.8-0.8,0.8h-11c-0.4,0-0.8-0.3-0.8-0.8l0,0c0-0.4,0.3-0.8,0.8-0.8
				h11C158.5,182,158.8,182.4,158.8,182.8L158.8,182.8z"/>
		</g>
	</g>
</g>
<g id="Layer_6">
	<g>
		<g>
			<g>
				<path class="st44" d="M610.9,285.7h-83c-1.2,0-2.3-1-2.3-2.3v-48.8c0-1.2,1-2.3,2.3-2.3h83c1.2,0,2.3,1,2.3,2.3v48.8
					C613.2,284.7,612.2,285.7,610.9,285.7z"/>
			</g>
		</g>
		<g>
			<g>
				<rect x="529.3" y="235.2" class="st9" width="79.4" height="47.6"/>
			</g>
		</g>
		<g>
			<g>
				<rect x="550.8" y="252.7" class="st45" width="37.2" height="26.4"/>
			</g>
			<g>
				<path class="st46" d="M588.4,279.4h-37.9v-27.1h37.9V279.4z M551.2,278.7h36.4V253h-36.4V278.7z"/>
			</g>
		</g>
		<g>
			<path class="st18" d="M552,273.6c-0.1,0-0.1,0-0.2,0c-0.3-0.1-0.5-0.5-0.4-0.8l3.6-10.3c0.1-0.2,0.3-0.4,0.5-0.4
				c0.2,0,0.5,0.1,0.6,0.3l3.2,5.6l5.4-10.6c0.1-0.2,0.3-0.4,0.6-0.3c0.2,0,0.5,0.2,0.6,0.4l4.8,11.8l8.2-13
				c0.1-0.2,0.4-0.3,0.6-0.3c0.3,0,0.4,0.2,0.5,0.5l2,8.8l4.1-6.3c0.2-0.3,0.6-0.4,0.9-0.2c0.3,0.2,0.4,0.6,0.2,0.9l-4.9,7.6
				c-0.1,0.2-0.4,0.3-0.6,0.3c-0.2,0-0.4-0.2-0.5-0.5l-2-8.8l-8.1,12.8c-0.1,0.2-0.3,0.3-0.6,0.3c-0.2,0-0.4-0.2-0.5-0.4l-4.7-11.6
				l-5.3,10.4c-0.1,0.2-0.3,0.3-0.5,0.3c-0.2,0-0.4-0.1-0.6-0.3l-3.1-5.4l-3.1,9C552.5,273.4,552.3,273.6,552,273.6z"/>
		</g>
		<g>
			<g>
				<g>
					<path class="st47" d="M578.2,266.4c0,5.8-8.8,9.2-8.8,9.2s-8.8-3.4-8.8-9.2c0-5.8,3.9-10.5,8.8-10.5
						C574.3,255.9,578.2,260.6,578.2,266.4z"/>
				</g>
			</g>
			<g>
				<g>
					<path class="st48" d="M574,262.1c0,0,4.5,7.3-2.5,12.6l0,0l-4.9-0.4c0,0-3.1-3.4-2.3-6.6l0,0L574,262.1L574,262.1z"/>
				</g>
			</g>
			<g>
				<g>
					<path class="st49" d="M561.8,283.1c0.1-2.2,0.1-3.7,0.1-3.9c0-0.9-0.7-1.7-1.5-1.9c-0.2-0.1-0.4-0.1-0.6-0.1
						c-1.1,0-1.9,0.8-2.1,1.8c0,0.1,0,0.1,0,0.1c-0.1,1.3-0.2,2.7-0.3,4H561.8z"/>
				</g>
			</g>
			<g>
				<g>
					<path class="st49" d="M580.8,283.1c-0.1-1.4-0.1-2.7-0.3-4c0-0.1,0-0.1,0-0.1c-0.1-1-1-1.8-2.1-1.8c-0.2,0-0.4,0-0.5,0.1
						c-0.9,0.2-1.6,1-1.6,1.9c0,0.2,0,1.7,0.1,3.9H580.8z"/>
				</g>
			</g>
			<g>
				<g>
					<path class="st49" d="M579.3,283.1l1.1-4c0-1-1-1.9-2.2-1.9h-2.4c-1.6-0.1-2.6-0.5-3.4-1.2c-0.7-0.7-1-1.6-1.2-2.7h-3.9
						c-0.1,1.1-0.5,2.1-1.2,2.7c-0.7,0.7-1.8,1.2-3.4,1.2h-2.4c0,0-0.1,0-0.1,0c-1.2,0.1-2.1,0.9-2.1,1.9l1.1,4H579.3z"/>
				</g>
			</g>
			<g>
				<g>
					<path class="st50" d="M580.8,283.1c-0.1-1.4-0.1-2.7-0.3-4c0-0.1,0-0.1,0-0.1c-0.1-1-1-1.8-2.1-1.8c-0.2,0-0.4,0-0.5,0.1h-2.1
						c-1.6-0.1-2.6-0.5-3.4-1.2h-6.2c-0.7,0.7-1.8,1.2-3.4,1.2h-2.4c0,0-0.1,0-0.1,0c-0.2-0.1-0.4-0.1-0.6-0.1
						c-1.1,0-1.9,0.8-2.1,1.8c0,0.1,0,0.1,0,0.1c-0.1,1.3-0.2,2.7-0.3,4H580.8z"/>
				</g>
			</g>
			<g>
				<g>
					<path class="st49" d="M574.8,265.6c0,3.9-2.4,8.6-5.4,8.6c-0.1,0-0.3,0-0.4,0c-2.8-0.4-5-4.8-5-8.6c0-3.7,2.2-6.8,5-7
						c0.1,0,0.3,0,0.4,0C572.4,258.6,574.8,261.7,574.8,265.6z"/>
				</g>
			</g>
			<g>
				<g>
					<path class="st51" d="M574,265.6c0,3.7-2.2,8.2-4.9,8.6c-2.8-0.4-5-4.8-5-8.6c0-0.1,0-0.2,0-0.4c0.1-2.6,1.2-4.8,2.9-5.9
						c0.5-0.3,1-0.5,1.5-0.7l0,0c0,0,0,0,0,0c0.2,0,0.3-0.1,0.5-0.1c0.3,0,0.7,0.1,1,0.2c2,0.7,3.6,2.9,3.9,5.7
						C573.9,264.9,574,265.3,574,265.6z"/>
				</g>
			</g>
			<g>
				<g>
					<path class="st47" d="M563.4,260.6c0,0,1,2.4,5.4,3.1c4.4,0.7,5.3,2.6,5.7,4c0,0,2.4-5.7-1.3-7.9
						C569.6,257.5,565.1,256.9,563.4,260.6z"/>
				</g>
			</g>
		</g>
		<g>
			<g>
				<path class="st18" d="M547,239c0,7.8-6.3,14.2-14.2,14.2c-7.8,0-14.2-6.3-14.2-14.2c0-7.8,6.3-14.2,14.2-14.2
					C540.7,224.8,547,231.1,547,239z"/>
			</g>
			<g>
				<g>
					<g>
						<path class="st9" d="M531,246c0-0.6,0.2-1.1,0.5-1.4c0.3-0.3,0.8-0.5,1.4-0.5c0.6,0,1,0.2,1.3,0.5c0.3,0.3,0.5,0.8,0.5,1.4
							c0,0.6-0.2,1-0.5,1.4c-0.3,0.3-0.8,0.5-1.3,0.5c-0.6,0-1-0.2-1.4-0.5C531.2,247.1,531,246.6,531,246z M533.9,242.1h-2.1
							l-0.6-12.4h3.4L533.9,242.1z"/>
					</g>
				</g>
			</g>
		</g>
	</g>
	<g id="XMLID_1_">
		<path id="XMLID_28_" class="st22" d="M562.3,203.8h-55c-12.7,0-23,10.3-23,23v430.6"/>
		<path id="XMLID_27_" class="st22" d="M562.3,203c0-5.9,4.8-10.7,10.7-10.7c5.9,0,10.7,4.8,10.7,10.7c0,5.9-4.8,10.7-10.7,10.7
			C567.1,213.7,562.3,209,562.3,203z"/>
		<path id="XMLID_22_" class="st22" d="M473.7,669c0-5.9,4.8-10.7,10.7-10.7c5.9,0,10.7,4.8,10.7,10.7c0,5.9-4.8,10.7-10.7,10.7
			C478.4,679.7,473.7,674.9,473.7,669z"/>
	</g>
</g>
<g id="Layer_7">
	<g>
		<line id="XMLID_34_" class="st22" x1="369.5" y1="686.7" x2="369.5" y2="398.7"/>
		<path id="XMLID_33_" class="st22" d="M359,695.7c0,5.9,4.8,10.7,10.7,10.7c5.9,0,10.7-4.8,10.7-10.7c0-5.9-4.8-10.7-10.7-10.7
			C363.8,685,359,689.8,359,695.7z"/>
		<path id="XMLID_32_" class="st22" d="M358.2,390.3c0,5.9,4.8,10.7,10.7,10.7c5.9,0,10.7-4.8,10.7-10.7c0-5.9-4.8-10.7-10.7-10.7
			C363,379.6,358.2,384.4,358.2,390.3z"/>
	</g>
	<g>
		<g>
			<g>
				<g>
					<path class="st44" d="M303.1,413.3v-71c0-1.1,0.9-1.9,1.9-1.9h41.8c1.1,0,1.9,0.9,1.9,1.9v71c0,1.1-0.9,1.9-1.9,1.9H305
						C304,415.2,303.1,414.3,303.1,413.3z"/>
				</g>
			</g>
			<g>
				<g>
					
						<rect x="292" y="357.1" transform="matrix(-1.836970e-16 1 -1 -1.836970e-16 703.3494 51.5174)" class="st52" width="67.9" height="40.7"/>
				</g>
			</g>
			<g>
				<g>
					<g>
						<path class="st53" d="M326.8,391.8l7.4-5.7h0l0,0c0,0,0.1,0,0.2,0l-0.9-7.5l0,0l-3.1,3.9c-0.5,0.7-1.9,1.1-3.2,1.1
							c-0.2,0-0.4,0-0.6,0c0,0,0,0-0.1,0c0,0-0.1,0-0.1,0c-0.6-0.1-1.1-0.3-1.3-0.6l-1.2-1.1l-2.7-2.5c-0.2-0.1-0.5-0.2-0.7-0.4
							c-0.1-0.1-0.2-0.1-0.3-0.2c-0.1,0-0.1-0.1-0.2-0.1c0,0,0,0,0,0l-0.4,7.6L326.8,391.8L326.8,391.8z"/>
					</g>
				</g>
				<g>
					<g>
						<path class="st49" d="M336.2,370.5c0.6-0.2,1.1-0.6,1.2-1.3l0.7-3.1c0.2-0.9-0.3-1.8-1.2-2c-0.2-0.1-0.3-0.1-0.5-0.1
							c0,0-0.1,0-0.1,0l-0.3,3.6L336.2,370.5z"/>
					</g>
				</g>
				<g>
					<g>
						<path class="st49" d="M317.5,373.5l-0.1-0.7L317.5,373.5c0.1,0.8,0.2,1.6,0.5,2.3c0.2,0.5,0.4,0.9,0.6,1.3
							c-0.2-0.4-0.5-0.8-0.6-1.3C317.8,375.1,317.6,374.3,317.5,373.5z"/>
					</g>
				</g>
				<g>
					<g>
						<path class="st49" d="M326.5,383.7c0,0-0.1,0-0.1,0C326.5,383.7,326.5,383.7,326.5,383.7z"/>
					</g>
				</g>
				<g>
					<g>
						<path class="st49" d="M320.2,378.8c-0.1-0.1-0.2-0.2-0.4-0.3c0.1,0.1,0.1,0.1,0.2,0.2c0,0,0,0,0,0
							C320.1,378.7,320.1,378.8,320.2,378.8z"/>
					</g>
				</g>
				<g>
					<g>
						<path class="st49" d="M320.5,379c0.2,0.2,0.4,0.3,0.7,0.4l2.7,2.5l-2.7-2.5C320.9,379.3,320.7,379.2,320.5,379z"/>
					</g>
				</g>
				<g>
					<g>
						<path class="st49" d="M335.8,369.2l-1.1-1.7h0l0.4,4.7c0.1,0.8,0,1.6-0.1,2.3c-0.2,1.1-0.6,2-1.2,2.8c-0.4,0.5-0.8,1-1.3,1.3
							l-3.3,4.2c-0.3,0.5-1.1,0.8-2,0.9c-0.2,0-0.4,0-0.6,0c0.2,0,0.4,0,0.6,0c1.3,0,2.7-0.4,3.2-1.1l3.1-3.9l0,0l0.2-0.2
							c0.5-0.4,0.9-0.8,1.3-1.3c0.6-0.8,1-1.7,1.2-2.8c0.2-0.8,0.2-1.5,0.1-2.3l-0.1-1.5l-0.2-2.9L335.8,369.2z"/>
					</g>
				</g>
				<g>
					<g>
						<path class="st54" d="M320.2,378.8c0.1,0.1,0.2,0.2,0.3,0.2c0.2,0.2,0.4,0.3,0.7,0.4l2.7,2.5l1.2,1.1c0.3,0.3,0.8,0.5,1.3,0.6
							c0,0,0.1,0,0.1,0c0,0,0,0,0.1,0c0.2,0,0.4,0,0.6,0c0.9-0.2,1.6-0.5,2-0.9l3.3-4.2c0.5-0.3,0.9-0.8,1.3-1.3
							c0.6-0.8,1-1.7,1.2-2.8c0.2-0.7,0.2-1.5,0.1-2.3l-0.4-4.7l-0.4-0.6l-1.7-2.7l-2.7-0.3l-4-0.5l-6.1-0.7l-1.1,5.7v0l0.5,1.2
							c0.3,0.8-0.1,1.8-0.9,2.2c-0.3,0.2-0.7,0.2-1,0.2l0.1,0.8l0.1,0.7c0.1,0.8,0.2,1.6,0.5,2.3c0.2,0.5,0.4,0.9,0.6,1.3
							c0.3,0.5,0.6,0.9,1,1.3c0,0,0.1,0.1,0.1,0.1C319.9,378.6,320.1,378.7,320.2,378.8z"/>
					</g>
				</g>
				<g>
					<g>
						<path class="st54" d="M318.4,371.9c0.8-0.4,1.2-1.4,0.9-2.2l-0.5-1.2l-0.5,2.5l-0.1,0.4l-0.1-0.4l-1.2-4.9l-0.1-0.3
							c-0.4-0.1-0.8-0.1-1.2,0.1c-0.8,0.4-1.2,1.4-0.9,2.2l1.2,3c0.2,0.6,0.8,1,1.4,1.1C317.7,372.1,318.1,372,318.4,371.9z"/>
					</g>
				</g>
				<g>
					<g>
						<path class="st55" d="M333.9,357.9c0,0.6-0.1,1.3-0.2,1.9c-0.5,2-2,3.6-3.8,4.1l2.7,0.3l1.7,2.7l0.4,0.6h0l1.1,1.7l0.1-1.6
							l0.3-3.6l0.3-2.8l-1.6-6.8l-1.2,1.1l0.2,2.1C333.9,357.6,333.9,357.8,333.9,357.9z"/>
					</g>
				</g>
				<g>
					<g>
						<path class="st55" d="M318.2,371.3l0.1-0.4c-0.1,0-0.1,0-0.2,0L318.2,371.3z"/>
					</g>
				</g>
				<g>
					<g>
						<path class="st56" d="M316.9,365.9l1.2,4.9c0.1,0,0.1,0,0.2,0l0.5-2.5v0l1.1-5.7l6.1,0.7l4,0.5c1.9-0.5,3.3-2.1,3.8-4.1
							c0.2-0.6,0.2-1.2,0.2-1.9c0-0.1,0-0.3,0-0.4l-0.2-2.1l-0.1,0l-5.5-4.6l-1.1,1.6l-1.2-0.7l-3.3-2l-1.5,2.4l-0.9-1.2l-1.6,3.7
							l-1.1,0.1l-1.3,8.4l0.6,2.5l0,0L316.9,365.9z"/>
					</g>
				</g>
				<g>
					<g>
						<path class="st57" d="M331.1,396.4l-4-4.3v19.3h19.2v-22.9c-1.5-0.3-3.3-0.7-5.1-1L331.1,396.4z M328.6,404.5
							c-0.4,0-0.6-0.3-0.6-0.6c0-0.4,0.3-0.6,0.6-0.6c0.4,0,0.6,0.3,0.6,0.6C329.3,404.2,329,404.5,328.6,404.5z"/>
					</g>
				</g>
				<g>
					<g>
						<path class="st57" d="M334.2,386.1l6.4,1.2c-2.8-0.6-5.4-1.1-6.2-1.2C334.3,386.1,334.3,386.1,334.2,386.1L334.2,386.1z"/>
					</g>
				</g>
				<g>
					<g>
						<polygon class="st58" points="322.6,396.4 326.7,391.9 326.7,391.8 326.8,391.8 326.8,391.8 319.6,386.3 319.4,386.1 
							319.3,386.1 312.4,387.4 						"/>
					</g>
				</g>
				<g>
					<g>
						<polygon class="st58" points="334.2,386.1 334.2,386.1 326.8,391.8 326.8,391.8 327,391.8 327,392.1 331.1,396.4 341.2,387.4 
							341.2,387.4 340.6,387.3 						"/>
					</g>
				</g>
				<g>
					<g>
						<polygon class="st59" points="327,392.1 327,391.8 326.8,391.8 326.7,391.8 326.7,391.9 326.7,411.4 327,411.4 						"/>
					</g>
				</g>
				<g>
					<g>
						<path class="st59" d="M328.6,403.2c-0.4,0-0.6,0.3-0.6,0.6c0,0.4,0.3,0.6,0.6,0.6c0.4,0,0.6-0.3,0.6-0.6
							C329.3,403.5,329,403.2,328.6,403.2z"/>
					</g>
				</g>
				<g>
					<g>
						<path class="st57" d="M322.6,396.4l-10.2-9l6.9-1.3c0,0,0,0,0,0c-0.7,0-10.8,2-13.8,2.6v6.8v15.8h2.9h18.3v-19.5L322.6,396.4z
							"/>
					</g>
				</g>
			</g>
		</g>
		<g>
			<path class="st50" d="M329.5,341.9c0,1.7-1.3,3-3,3c-1.7,0-3-1.3-3-3s1.3-3,3-3C328.2,338.9,329.5,340.2,329.5,341.9z"/>
		</g>
		<g>
			<g>
				<path class="st60" d="M331.4,372.4l4-10.1c-0.4-0.6-0.7-1.4-0.7-2.2v-19.4c0-2.2,1.8-4,4-4h32.7c2.2,0,4,1.8,4,4V360
					c0,2.2-1.8,4-4,4h-29.9L331.4,372.4z"/>
			</g>
			<g>
				<path class="st61" d="M341.6,344.5H370c0.3,0,0.6-0.3,0.6-0.6v-0.1c0-0.3-0.3-0.6-0.6-0.6h-28.4c-0.3,0-0.6,0.3-0.6,0.6v0.1
					C341,344.2,341.2,344.5,341.6,344.5z"/>
			</g>
			<g>
				<path class="st61" d="M341.6,350.3H370c0.3,0,0.6-0.3,0.6-0.6v-0.1c0-0.3-0.3-0.6-0.6-0.6h-28.4c-0.3,0-0.6,0.3-0.6,0.6v0.1
					C341,350,341.2,350.3,341.6,350.3z"/>
			</g>
			<g>
				<path class="st61" d="M341.6,356H370c0.3,0,0.6-0.3,0.6-0.6v-0.1c0-0.3-0.3-0.6-0.6-0.6h-28.4c-0.3,0-0.6,0.3-0.6,0.6v0.1
					C341,355.8,341.2,356,341.6,356z"/>
			</g>
		</g>
	</g>
</g>
<g id="Layer_9">
</g>
<g id="Layer_13">
	<g>
		<g>
			<path id="XMLID_4277_" class="st62" d="M190.4,481.5H97.5v-53.1c0-1.4,1.1-2.6,2.6-2.6h87.7c1.4,0,2.6,1.1,2.6,2.6V481.5z"/>
			<rect id="XMLID_4302_" x="101.5" y="429.3" class="st9" width="84.7" height="48"/>
			<path id="XMLID_4304_" class="st9" d="M156.5,479.7H132c-0.2,0-0.4-0.2-0.4-0.4v-0.3c0-0.2,0.2-0.4,0.4-0.4h24.5
				c0.2,0,0.4,0.2,0.4,0.4v0.3C156.9,479.6,156.7,479.7,156.5,479.7z"/>
		</g>
		<g>
			<path class="st63" d="M159,445.4c0.7-1.2,1.4-2.4,2.4-3.4c1.7-1.8,3.7-3,6.1-3.3c2.1-0.3,4.1,0.1,5.7,1.7
				c1.5,1.5,1.8,3.3,1.3,5.3c-0.2,0.8-0.5,1.5-0.9,2.2c-0.4,0.7-1.2,1-1.9,0.8c-0.7-0.2-0.8-0.7-0.5-1.3c0.7-1.2,1-2.5,0.9-3.8
				c-0.2-1.3-1.1-2.1-2.6-2.4c-2.2-0.3-4.1,0.4-5.7,1.9c-1.3,1.2-2.1,2.7-2.9,4.2c-0.9,1.8-1.9,3.6-3.1,5.3c-2,2.9-4.4,5.4-7.2,7.5
				c-3.3,2.4-6.9,3.9-11,4.3c-4.3,0.5-8.5-0.1-12.5-1.8c-4.2-1.8-7.1-5-8.6-9.4c-0.7-1.9-1.1-3.8-1.3-5.7c0-0.1,0-0.1-0.1-0.1
				c0-0.9,0-1.8,0-2.7c0.1-0.1,0.1-0.2,0.1-0.3c0.2-1.9,0.7-3.7,1.6-5.4c0.9-1.8,2.3-3.2,4.3-3.8c0.3-0.1,0.7-0.1,1-0.3
				c0.4,0,0.7,0,1.1,0c0.3,0.1,0.7,0.2,0.8,0.5c0.1,0.5-0.1,1-0.5,1.4c-0.1,0.1-0.1,0.1-0.2,0.2c-0.4,0.1-0.7,0.1-1.1,0.2
				c-1,0.4-1.8,1.1-2.4,2c-1.8,2.4-2.4,5.1-2.1,8.1c0.3,2.5,1,4.8,2.2,7c1.3,2.3,3,4.3,5.3,5.7c3.6,2.1,7.6,2.7,11.7,2.2
				c3.3-0.4,6.4-1.6,9.2-3.4C153.3,455.6,156.6,450.9,159,445.4z"/>
			<path class="st64" d="M137.3,471.7c-0.3-0.1-0.7,0-1-0.1c-0.5,0-1,0-1.4-0.1c1.8,0,3.7,0,5.5,0c0,0,0,0,0,0.1
				C139.3,471.7,138.3,471.7,137.3,471.7z"/>
			<path class="st65" d="M140.4,471.7C140.4,471.7,140.4,471.7,140.4,471.7c2.3-0.1,4.5-0.1,6.8-0.1c0,0,0,0,0,0.1
				C144.9,471.7,142.6,471.7,140.4,471.7z"/>
			<path class="st64" d="M147.2,471.7C147.2,471.7,147.2,471.7,147.2,471.7c0.8-0.1,1.5-0.1,2.3-0.1c1.1,0,2.2,0,3.4,0
				c-0.5,0.1-1,0-1.5,0.1c-0.3,0-0.6-0.1-1,0.1C149.3,471.7,148.2,471.7,147.2,471.7z"/>
			<path class="st66" d="M155.5,446.2c0.6-0.6,0.9-1.4,1.4-2.1c0.1,0,0.2-0.1,0.3-0.1c0.4-0.1,0.7,0.1,0.8,0.7
				c0.1,0.6-0.1,1.1-0.3,1.6c-1.3,2.7-2.9,5.3-4.9,7.5c-2.3,2.5-4.9,4.4-8,5.7c-0.8,0.3-1.5,0.6-2.3,0.8c-0.5-0.1-0.9,0.1-1.3,0.2
				c-0.1,0-0.2,0-0.2,0c0-0.1,0-0.1,0.1-0.2c0,0,0.1,0,0.1-0.1c-0.4,0.1-0.5-0.2-0.8-0.4c-1.1-0.5-2-1.3-3.1-1.8
				c-0.2-0.1-0.4-0.4-0.7-0.3c-0.1,0-0.3,0.1-0.3-0.1c0-0.2,0.2-0.2,0.3-0.2c0,0,0,0,0-0.1c-0.3,0-0.7,0-0.8-0.4c0.1,0,0.2,0,0.3,0
				c0,0.2,0.2,0.1,0.3,0.1c0.4,0,0.7,0,1.1,0c0.2,0,0.5,0.1,0.7-0.1c0,0,0,0,0.1-0.1c0.5,0,1,0,1.5-0.1c0.3,0,0.6-0.1,0.9-0.1
				c0.2,0,0.4-0.1,0.7-0.1c0.1,0,0.2,0,0.3-0.1c0,0,0.1,0,0.1,0c0.3-0.1,0.6-0.1,0.9-0.3c0.5-0.2,1.1-0.3,1.6-0.6
				c0.4-0.2,0.9-0.4,1.4-0.6c0.9-0.5,1.9-1,2.8-1.6c0.6-0.3,1.1-0.7,1.6-1.1c0.6-0.5,1.3-1.1,1.9-1.6c0.5-0.4,0.9-0.9,1.3-1.3
				c0.3-0.3,0.5-0.6,0.7-0.9c0.5-0.6,1-1.2,1.4-1.8c0.1-0.1,0.1-0.2,0.1-0.3c0,0,0,0,0,0C155.5,446.3,155.5,446.3,155.5,446.2z"/>
			<path class="st66" d="M124.7,437.9c0.3-0.1,0.6-0.2,0.9-0.3c0.5,0.1,0.6,0.3,0.7,0.8c0,0.6-0.1,1.1-0.1,1.6
				c-0.2,0.2-0.1,0.5-0.2,0.7c0,0-0.1,0.1-0.1,0.1c-0.1,1.1-0.1,2.2-0.2,3.3c0,0.6,0.1,1.2,0.1,1.8c0,0.1,0,0.2,0,0.3
				c0,0.1,0,0.2,0.1,0.2c0,0.2,0,0.5,0,0.7c0,0.1,0,0.2,0.1,0.3c0,0.2-0.1,0.5,0.1,0.6c-0.1,0.3,0.1,0.5,0.1,0.8
				c0,0.1,0,0.2,0.1,0.2c0,0.1,0,0.1,0,0.2c0,0.1,0,0.2,0.1,0.3c0.1,0.2,0.1,0.3,0.2,0.5c0,0.2,0.1,0.3,0.2,0.5
				c0,0.2,0.1,0.3,0.1,0.5c-0.1,0.1-0.2,0.2-0.4,0.3c0-0.2-0.1-0.3-0.3-0.4c-0.5-0.4-1-0.6-1.5-0.9c-1.1-0.7-2.2-1.3-3.2-2
				c-0.5-0.3-0.9-0.6-0.9-1.2c0-0.1-0.1-0.1-0.1-0.1c-0.2-2.2,0.2-4.4,1.4-6.3c0.2-0.4,0.5-0.7,0.8-1c0.1-0.1,0.2-0.2,0.2-0.4
				c0.2,0,0.2-0.1,0.3-0.3l0,0c0.1-0.1,0.2-0.2,0.3-0.3c0,0,0.1,0,0.1-0.1C124,438.3,124.3,438.1,124.7,437.9z"/>
			<path class="st67" d="M125.7,446.1c0-0.6-0.1-1.2-0.1-1.8c0.1-1.1,0.1-2.2,0.2-3.3c0,0,0-0.1,0.1-0.1c0,0,0,0.1,0,0.1
				c0,0.1,0.1,0,0.1,0c0.1-0.2,0.2-0.3,0.2-0.5c0.5-0.9,1-1.7,1.8-2.3c0.4-0.4,0.9-0.6,1.5-0.8c0.5-0.1,0.9,0.1,0.9,0.7
				c0,0.5-0.2,0.9-0.1,1.4c-0.5,1.8-0.6,3.5-0.5,5.3c0,0.4,0,0.8,0.2,1.2c0,0.4,0.1,0.8,0.3,1.2c0,0.1,0,0.1,0.1,0.2
				c0,0.1,0,0.1,0.1,0.2c0,0.1,0,0.2,0.1,0.3c0.1,0.5,0.4,0.8,0.5,1.2c-0.2,0.1-0.3,0-0.4,0c-0.4-0.2-0.7-0.5-1.1-0.7
				c-0.4-0.2-0.8-0.5-1.2-0.7c-0.6-0.4-1.2-0.8-1.8-1.1c0,0-0.1,0-0.1-0.1C126.3,445.9,125.9,446.2,125.7,446.1z"/>
			<path class="st67" d="M155.4,446.4c0,0.1,0,0.2-0.1,0.3c-0.4,0.6-0.9,1.3-1.4,1.8c-0.3,0.3-0.5,0.6-0.7,0.9
				c-0.5,0.4-0.9,0.9-1.3,1.3c-0.6,0.6-1.2,1.1-1.9,1.6c-0.5,0.4-1,0.8-1.6,1.1c-0.9,0.6-1.8,1.1-2.8,1.6c-0.5,0.2-0.9,0.4-1.4,0.6
				c-0.5,0.3-1.1,0.4-1.6,0.6c-0.3,0.1-0.6,0.2-0.9,0.3c0-0.2,0-0.3-0.2-0.4c-0.2-0.1-0.3-0.2-0.5-0.3c-0.5-0.4-1-0.7-1.6-1
				c-0.4-0.3-0.9-0.5-1.2-0.8c-0.3-0.3-0.5-0.4-0.9-0.4c-0.2,0-0.3-0.1-0.4-0.3c0.3,0,0.4,0,0.6,0h0l0,0c0.1,0.2,0.3,0.2,0.5,0.1
				c0,0,0.1,0,0.1,0v0c0.1,0.1,0.3,0,0.4,0.1c0.7,0,1.5,0,2.2,0c0.4,0,0.8,0,1.2-0.1c0.1,0,0.2,0,0.3-0.1c1.8-0.2,3.6-0.7,5.3-1.4
				c1.3-0.5,2.5-1.2,3.7-1.9c1-0.6,1.9-1.4,2.8-2.2c0.2-0.2,0.5-0.4,0.6-0.7C154.9,446.8,155.1,446.6,155.4,446.4z"/>
			<path class="st68" d="M130,445.9c-0.2-0.4-0.2-0.8-0.2-1.2c-0.1-1.8,0.1-3.6,0.5-5.3c0.4-0.5,0.8-1.1,1.3-1.5
				c0.3-0.3,0.7-0.5,1.1-0.6c0.6-0.2,0.9,0.1,0.9,0.7c0,0.4,0,0.7-0.1,1.1c-0.4,1.5-0.4,3.1-0.4,4.7c0.1,1.4,0.4,2.7,1.1,3.9
				c0.1,0.2,0.2,0.3,0.2,0.5c0,0,0,0.1-0.1,0.1c-0.2-0.1-0.5-0.1-0.7-0.2c-0.4-0.3-0.8-0.6-1.2-0.8c-0.7-0.3-1.2-0.9-2-1.1
				c-0.1,0-0.1-0.1-0.2-0.1c-0.1-0.1-0.1-0.3-0.2-0.3C129.9,445.6,130.1,445.8,130,445.9z"/>
			<path class="st69" d="M152.8,471.6c-1.1,0-2.2,0-3.4,0c-0.8,0-1.5,0-2.3,0c-2.3,0-4.5,0-6.8,0c-1.8,0-3.7-0.1-5.5,0
				c-2,0-4-0.1-5.9-0.2c-0.2,0-0.3,0-0.5-0.1c0.4-0.1,0.7-0.2,1.1-0.3c2.2-0.2,4.4-0.2,6.6-0.3c1.1-0.1,2.2-0.1,3.2-0.1
				c2,0,4-0.1,6-0.1c0.1,0,0.2,0,0.3-0.1c1.2,1.3,3.1,1.3,4.3,0c0.1,0.1,0.2,0.1,0.3,0.1c2.1,0,4.1,0.1,6.2,0.2
				c1.1,0.1,2.2,0.2,3.3,0.4c0.1,0,0.3,0.1,0.4,0.2C157.7,471.5,155.2,471.6,152.8,471.6z"/>
			<path class="st63" d="M149.9,470.4c-1.2,1.3-3.1,1.3-4.3,0c-0.8-1-0.9-2.4-0.2-3.4c0.7-1,2-1.5,3.2-1.1c1.2,0.4,2,1.5,2,2.8
				C150.6,469.3,150.4,469.9,149.9,470.4z"/>
			<path class="st63" d="M129.5,471c-0.3,0.1-0.7,0.3-1.1,0.3c-1.3,0.1-2.3-0.4-2.9-1.6c-0.6-1.3-0.1-2.9,1.2-3.6
				c1.3-0.7,2.9-0.3,3.7,0.9c0.8,1.2,0.6,2.9-0.6,3.8C129.7,470.9,129.6,470.9,129.5,471z"/>
			<path class="st70" d="M130,445.9c0.1-0.1,0-0.3,0.1-0.4c0.2,0,0.2,0.2,0.2,0.3c0.1,0.1,0.1,0.1,0.2,0.1c0.7,0.2,1.3,0.8,2,1.1
				c0.4,0.2,0.9,0.5,1.2,0.8c0.2,0.2,0.5,0.1,0.7,0.2c0,0,0-0.1,0.1-0.1c0.3,0.2,0.4,0.5,0.6,0.7c0.7,0.9,1.6,1.6,2.7,2
				c0.7,0.3,1.4,0.6,2.2,0.7c0.1,0,0.2,0,0.2,0.1c-0.1,0-0.2,0-0.1,0.1c0.2,0.1,0.3,0.3,0.6,0.3c0.1,0,0.3,0,0.5,0
				c0,0.1-0.1,0.1-0.2,0.1c-0.1,0-0.3-0.1-0.3,0.1c0,0.2,0.2,0.1,0.3,0.1c0.2,0,0.4,0,0.5,0.2c0,0.1,0.1,0.1,0.2,0.2
				c0.2,0.1,0.3,0.2,0.2,0.5c-0.4,0-0.8,0.1-1.2,0.1c0.1-0.3-0.1-0.4-0.4-0.4c-0.2,0-0.4,0.1-0.6-0.1c-0.3-0.3-0.6-0.4-0.9-0.6
				c-0.2-0.1-0.5-0.2-0.6-0.4c-0.1-0.3-0.3-0.3-0.6-0.2c0.1-0.1,0.1-0.2,0-0.3c-0.3-0.1-0.6-0.4-0.9-0.5c-0.1,0-0.2-0.1-0.3-0.2
				c-0.2-0.2-0.4-0.5-0.8-0.5c-0.1,0-0.2-0.1-0.2-0.2c0-0.2-0.1-0.2-0.2-0.1c-0.2,0.1-0.3,0-0.4-0.1c-0.2-0.2-0.4-0.4-0.7-0.4
				c-0.1,0-0.1,0-0.2-0.1c-0.5-0.5-1-0.7-1.6-1.1c-0.5-0.3-1.1-0.5-1.5-0.9c-0.2-0.2-0.4-0.4-0.7-0.1
				C130.1,446.7,130,446.3,130,445.9z"/>
			<path class="st68" d="M141.9,453.3c0.1-0.2,0.1-0.4-0.2-0.5c-0.1,0-0.2-0.1-0.2-0.2c-0.1-0.2-0.2-0.3-0.5-0.2
				c-0.1,0-0.2,0-0.3-0.1c0-0.2,0.2-0.1,0.3-0.1c0.1,0,0.1,0,0.2-0.1c-0.2-0.1-0.3-0.1-0.5,0c-0.3,0-0.4-0.1-0.6-0.3
				c-0.1-0.1,0-0.1,0.1-0.1c0.1,0,0.3,0,0.4,0c0,0.1,0.1,0.1,0.2,0.1c0.2,0,0.4,0,0.6,0c1.1,0,2.2,0.1,3.4-0.1
				c0.8-0.1,1.7-0.3,2.5-0.5c1.3-0.4,2.6-0.9,3.8-1.5c1.3-0.7,2.4-1.5,3.5-2.4c0,0,0.1,0,0.1-0.1c-0.1,0.3-0.4,0.5-0.6,0.7
				c-0.9,0.8-1.8,1.5-2.8,2.2c-1.2,0.8-2.4,1.4-3.7,1.9c-1.7,0.7-3.5,1.2-5.3,1.4C142.1,453.3,142,453.3,141.9,453.3z"/>
			<path class="st64" d="M126.2,440.4c0,0.2-0.1,0.3-0.2,0.5c0,0,0,0.1-0.1,0c0,0,0-0.1,0-0.1c0.1-0.2,0-0.5,0.2-0.7
				C126.1,440.2,126,440.4,126.2,440.4z"/>
			<path class="st65" d="M141.4,451.8c-0.2,0-0.4,0-0.6,0c-0.1,0-0.2,0-0.2-0.1C140.9,451.7,141.1,451.7,141.4,451.8z"/>
			<path class="st67" d="M155.5,446.2c0,0.1,0,0.1-0.1,0.1C155.4,446.2,155.4,446.2,155.5,446.2z"/>
			<path class="st68" d="M126.2,448.9c0-0.3-0.2-0.5-0.1-0.8c0-0.2,0.2-0.1,0.3-0.1c0.2,0,0.3,0.1,0.4,0.2c1.1,0.8,2.3,1.5,3.4,2.3
				c1.1,0.8,2.3,1.4,3.4,2.2c0.7,0.5,1.4,0.8,2.1,1.3c0.8,0.6,1.7,1.1,2.5,1.6c0.3,0.2,0.6,0.5,1.1,0.5c0.1,0,0.1,0,0.1,0.1
				c0,0.1,0,0.1,0,0.1c0,0-0.2,0-0.2,0.1c0.2,0,0.4,0,0.7,0c-0.1,0.1-0.2,0.1-0.2,0.2c-0.5,0.1-1,0.1-1.5,0.1c0,0,0,0-0.1,0
				c0-0.2-0.1-0.3-0.3-0.3c-0.5-0.2-0.8-0.5-1.3-0.8c-1.1-0.7-2.2-1.4-3.3-2.1c-0.8-0.5-1.5-1-2.3-1.5c-0.9-0.5-1.7-1.1-2.6-1.7
				c-0.3-0.2-0.6-0.4-0.9-0.6c-0.3-0.2-0.7-0.3-0.9-0.6c0,0-0.1-0.1-0.1,0c0,0,0,0.1,0,0.1c0,0-0.1,0-0.1,0c0-0.1,0-0.1,0-0.2
				C126.4,449,126.4,449,126.2,448.9z"/>
			<path class="st71" d="M139.7,456.8c0-0.1,0.1-0.1,0.2-0.2c-0.2,0-0.5,0-0.7,0c0-0.1,0.1-0.1,0.2-0.1c0,0,0.1-0.1,0-0.1
				c0-0.1-0.1-0.1-0.1-0.1c-0.4,0-0.8-0.3-1.1-0.5c-0.9-0.5-1.7-1.1-2.5-1.6c-0.7-0.5-1.4-0.8-2.1-1.3c-1.1-0.8-2.2-1.4-3.4-2.2
				c-1.1-0.8-2.3-1.4-3.4-2.3c-0.1-0.1-0.3-0.2-0.4-0.2c-0.1,0-0.2-0.1-0.3,0.1c-0.2-0.2-0.1-0.4-0.1-0.6c0-0.2,0-0.4,0-0.7
				c0.2,0.2,0.1,0.3,0.2,0.5c0.1-0.3,0.2-0.2,0.4-0.1c0.6,0.4,1.2,0.8,1.8,1.2c1,0.6,2.1,1.3,2.9,2.1c0,0,0.1,0,0.1,0
				c0.2-0.1,0.4,0,0.6,0.2c0.2,0.3,0.4,0.7,0.9,0.6c0,0,0,0.1,0.1,0.1c0,0,0,0,0,0c0-0.1-0.1-0.1-0.1-0.1c0,0,0-0.1,0-0.1
				c0.4,0.2,0.7,0.5,1.1,0.7c0.4,0.2,0.8,0.4,1.2,0.6c-0.2,0.1-0.2,0.1-0.1,0.1c0.3,0.4,0.6,0.6,1.1,0.7c0.1,0.1-0.2,0.1-0.1,0.2
				c0.1,0.1,0.2,0,0.3,0l0,0c0,0.2,0.2,0.1,0.3,0.2c0.8,0.5,1.6,1,2.3,1.5c0.3,0.2,0.7,0.3,0.9,0.7c0.3,0,0.2,0.4,0.5,0.3
				c0.1,0,0.1,0.1,0.1,0.2C140.3,456.7,140,456.8,139.7,456.8z"/>
			<path class="st72" d="M142.5,460.3c-0.4,0.2-0.8,0.3-1.3,0.4c-0.3,0.1-0.6,0.2-0.9,0.2c-0.2,0-0.4,0-0.5-0.2
				c-0.1-0.1-0.3-0.1-0.4,0c-0.1,0-0.1,0.1-0.2,0.1c0.1-0.3,0.3-0.4,0.6-0.4c-0.2-0.1-0.5,0-0.7-0.1c-0.2-0.1-0.4-0.3-0.6-0.4
				c-0.4-0.3-0.9-0.4-1.3-0.7c-0.2-0.2-0.4-0.3-0.6-0.4c-0.9-0.4-1.6-1-2.5-1.5c-0.4-0.2-0.7-0.4-1.1-0.4c-0.1,0-0.2,0.1-0.2-0.1
				c0.2,0,0.4,0,0.5-0.3c0.2,0.1,0.5,0.1,0.7,0.2c0.2,0.1,0.4,0.1,0.5,0.1c0.4,0.2,0.9,0.1,1.3,0.2c0.1,0.4,0.5,0.4,0.8,0.4
				c0,0,0,0.1,0,0.1c-0.1,0.1-0.3,0-0.3,0.2c0,0.1,0.2,0.1,0.3,0.1c0.3-0.1,0.5,0.2,0.7,0.3c1.1,0.6,2,1.3,3.1,1.8
				c0.3,0.1,0.4,0.5,0.8,0.4c0.1,0.1,0,0.1-0.1,0.1c-0.1,0-0.1,0.1-0.1,0.2c0,0.1,0.1,0.1,0.2,0
				C141.7,460.4,142.1,460.3,142.5,460.3z"/>
			<path class="st65" d="M135.8,456.9c-0.4-0.1-0.9,0-1.3-0.2c-0.2-0.1-0.4,0-0.5-0.1c0.1-0.2,0.4,0.1,0.4-0.2
				c0-0.2-0.2-0.1-0.4-0.1c0,0,0,0,0-0.1c0,0,0.1-0.1,0.1-0.1c0-0.1-0.1-0.1-0.2-0.1c-0.2,0-0.4,0.1-0.5-0.1
				c-0.1-0.2-0.2-0.3-0.4-0.4c-0.3-0.2-0.6-0.3-0.8-0.5c-0.7-0.5-1.4-0.9-2.1-1.4c-0.2-0.1-0.4-0.2-0.6-0.3
				c-0.2-0.1-0.5-0.2-0.6-0.4c-0.1-0.2-0.2-0.3-0.4-0.2c0,0-0.1,0.1-0.1,0c0-0.2-0.3-0.3-0.3-0.5c0-0.1,0-0.2-0.2-0.2
				c-0.1,0-0.1,0.2-0.1,0.2c0,0,0,0.1,0,0.1c-0.3-0.4-0.6-0.9-0.8-1.3c0-0.1,0-0.2,0-0.3c0.2,0.1,0.2,0.4,0.5,0.3
				c0.1,0,0.2,0,0.2,0.1c0.4,0.3,0.8,0.5,1.3,0.8c0.8,0.5,1.6,1.1,2.4,1.6c1.1,0.7,2.2,1.4,3.3,2.1c0.3,0.2,0.6,0.5,1,0.5
				c0.1,0,0.2,0.1,0.2,0.2c-0.3,0.2,0.1,0.2,0.1,0.2c0.1,0.1,0.2,0.1,0.2,0.2c-0.1,0-0.2,0-0.3,0C136,456.9,135.9,456.9,135.8,456.9
				z"/>
			<path class="st73" d="M140.6,456.7c0-0.1,0-0.3-0.1-0.2c-0.3,0-0.3-0.4-0.5-0.3c-0.2-0.4-0.6-0.5-0.9-0.7c-0.8-0.5-1.6-1-2.3-1.5
				c-0.1-0.1-0.3,0-0.3-0.2c0.1,0,0.2,0,0.2-0.1c-0.1-0.1-0.2-0.1-0.2,0.1c-0.1,0-0.2,0-0.3,0c-0.1-0.1,0.2-0.1,0.1-0.2
				c-0.5-0.1-0.8-0.3-1.1-0.7c-0.1-0.1-0.1-0.1,0.1-0.1c0.1,0.1,0.3,0.1,0.5,0.1c0.1,0.3,0.3,0.3,0.6,0.2c0.4,0,0.8,0.2,1.3,0.3
				c-0.2,0-0.4,0-0.6,0c0.2,0.2,0.3,0.3,0.4,0.3c0.3,0,0.6,0.1,0.9,0.4c0.3,0.3,0.8,0.5,1.2,0.8c0.5,0.3,1.1,0.7,1.6,1
				c0.2,0.1,0.4,0.2,0.5,0.3c0.2,0.1,0.2,0.2,0.2,0.4c0,0-0.1,0-0.1,0c-0.1-0.1-0.2-0.1-0.3,0.1
				C141.1,456.6,140.8,456.7,140.6,456.7z"/>
			<path class="st74" d="M136,456.9c0.1,0,0.2,0,0.3,0c0.3,0,0.6,0.1,0.9,0.1c0.3,0,0.6,0,1,0l0,0c-0.2,0.1-0.5,0-0.7,0.1
				c-0.4,0-0.7,0-1.1,0C136.2,457,136.1,457.1,136,456.9z"/>
			<path class="st67" d="M141.3,456.5c0-0.2,0.1-0.2,0.3-0.1C141.5,456.6,141.4,456.5,141.3,456.5z"/>
			<path class="st74" d="M138.1,456.9C138.2,456.9,138.2,456.9,138.1,456.9C138.2,456.9,138.2,457,138.1,456.9L138.1,456.9
				C138.1,457,138.1,456.9,138.1,456.9L138.1,456.9z"/>
			<path class="st74" d="M133.2,456.4c-0.1,0.3-0.3,0.3-0.5,0.3c0.1,0.2,0.2,0.1,0.2,0.1c0.4,0,0.8,0.1,1.1,0.4
				c0.8,0.5,1.6,1.1,2.5,1.5c0.2,0.1,0.4,0.2,0.6,0.4c0.4,0.3,0.8,0.5,1.3,0.7c0.2,0.1,0.4,0.3,0.6,0.4c0.2,0.1,0.5,0,0.7,0.1
				c-0.3,0.1-0.5,0.1-0.6,0.4c0.1,0.1,0.2,0,0.2-0.1c0.1-0.1,0.3-0.1,0.4,0c0.1,0.2,0.3,0.2,0.5,0.2c-0.6,0.2-1.2,0.3-1.8,0.3
				c-0.4,0-0.7-0.1-0.9-0.4c-0.1-0.1-0.2-0.1-0.3-0.2c-0.5-0.3-1-0.5-1.4-0.8c-0.9-0.6-1.8-1.1-2.7-1.6c-0.7-0.5-1.5-0.9-2.3-1.3
				c-0.2-0.1-0.4-0.3-0.7-0.5c-1-0.6-2-1.2-3-1.7c-0.6-0.3-1.1-0.7-1.7-1.1c-0.5-0.3-0.9-0.5-1.4-0.8c-0.7-0.4-1.3-0.9-2.1-1.1
				c0,0-0.1-0.1-0.1-0.1c-0.1-0.1-0.2-0.2-0.4-0.1c-0.3-0.6-0.5-1.3-0.6-1.9c-0.1-0.3-0.2-0.5-0.1-0.8c0.2,0,0.1,0.2,0.1,0.3
				c0,0.2,0.1,0.3,0.2,0.5c0.4,0.3,0.8,0.5,1.1,0.8c0.7,0.5,1.5,1,2.3,1.4c0.3,0.1,0.6,0.3,0.9,0.5c0.5,0.3,0.9,0.6,1.4,0.9
				c0.2,0.1,0.4,0.4,0.8,0.3c0.1,0,0.1,0.1,0.1,0.1c0.3,0.1,0.4,0.4,0.7,0.5c0.3,0.1,0.2-0.1,0.2-0.2c0.3,0.2,0.5,0.5,0.8,0.7
				c0.8,0.7,1.6,1.2,2.5,1.6C132.5,456.1,132.9,456.2,133.2,456.4z"/>
			<path class="st75" d="M121.6,451.3c0.1,0,0.3,0,0.4,0.1c0,0,0.1,0.1,0.1,0.1c0.8,0.2,1.4,0.7,2.1,1.1c0.5,0.3,0.9,0.5,1.4,0.8
				c0.6,0.4,1.1,0.7,1.7,1.1c1,0.6,2,1.2,3,1.7c0.2,0.1,0.4,0.3,0.7,0.5c0.8,0.4,1.5,0.9,2.3,1.3c0.9,0.5,1.8,1.1,2.7,1.6
				c0.4,0.3,0.9,0.5,1.4,0.8c0.1,0.1,0.2,0.1,0.3,0.2c0.3,0.3,0.6,0.4,0.9,0.4c-0.4,0.1-0.8,0.1-1.2,0.1c-0.4,0-0.8,0-1.3,0
				c0-0.2-0.2-0.3-0.3-0.4c-0.6-0.3-1.1-0.6-1.7-0.9c-0.7-0.4-1.4-0.8-2.1-1.2c-0.5-0.3-1-0.7-1.5-0.9c-1.2-0.7-2.3-1.4-3.5-2.1
				c-1.2-0.7-2.3-1.5-3.6-2.1c-0.3-0.2-0.7-0.3-0.8-0.7c0,0,0-0.1-0.1-0.1c-0.1,0-0.1,0.1,0,0.1c0,0.1,0,0.2,0.1,0.3
				c0.1,0.1,0.2,0.3,0.1,0.4c-0.4-0.3-0.5-0.8-0.7-1.2C121.9,452,121.7,451.7,121.6,451.3z"/>
			<path class="st73" d="M122.8,453.6c0.1-0.2,0.1-0.3-0.1-0.4c-0.1-0.1-0.1-0.2-0.1-0.3c0-0.1,0-0.1,0-0.1c0,0,0.1,0,0.1,0.1
				c0.1,0.4,0.5,0.6,0.8,0.7c1.2,0.7,2.3,1.5,3.6,2.1c1.2,0.6,2.3,1.4,3.5,2.1c0.5,0.3,1,0.6,1.5,0.9c0.7,0.4,1.4,0.8,2.1,1.2
				c0.5,0.4,1.1,0.6,1.7,0.9c0.1,0.1,0.3,0.2,0.3,0.4c-0.5,0-1-0.1-1.6-0.1c-0.1-0.2-0.2-0.5-0.6-0.3c0,0-0.1,0-0.1,0
				c0-0.2-0.3-0.2-0.4-0.3c0-0.1,0.2,0,0.2-0.2c-0.1-0.1-0.3-0.1-0.4-0.1c-0.6-0.3-1.1-0.8-1.7-1.1c-0.8-0.5-1.6-1-2.5-1.5
				c-1-0.6-2.1-1.2-3.1-1.9c-0.3-0.2-0.6-0.3-0.9-0.5c-0.2-0.1-0.4-0.3-0.7-0.4c-0.3-0.1-0.5-0.6-0.9-0.5c0-0.3-0.2-0.1-0.3-0.1
				C123,454.1,122.8,453.9,122.8,453.6z"/>
			<path class="st76" d="M123.1,454.3c0.1,0,0.2-0.2,0.3,0.1c0.4,0,0.6,0.4,0.9,0.5c0.3,0.1,0.5,0.3,0.7,0.4
				c0.3,0.1,0.6,0.3,0.9,0.5c1,0.7,2.1,1.3,3.1,1.9c0.8,0.5,1.6,1,2.5,1.5c0.6,0.3,1.1,0.8,1.7,1.1c0.1,0.1,0.3,0.1,0.4,0.1
				c0,0.1-0.2,0.1-0.2,0.2c0.1,0.1,0.4,0,0.4,0.3c0,0,0.1,0.1,0.1,0c0.4-0.3,0.5,0,0.6,0.3c-0.6,0-1.1-0.1-1.7-0.3
				c0-0.1-0.1-0.1-0.2-0.1c-0.2,0-0.4-0.1-0.6-0.3c-0.2-0.2-0.5-0.2-0.7,0c0,0-0.1,0-0.1,0c0-0.2,0.2-0.2,0.3-0.3
				c-0.4-0.1-0.8-0.3-1-0.6c-0.1-0.1-0.2-0.2-0.4-0.2c-0.1,0-0.2,0-0.2-0.1c-0.3-0.2-0.6-0.3-0.8-0.5c-0.5-0.4-1.1-0.5-1.6-0.9
				c-0.2-0.2-0.5-0.4-0.8-0.4c0,0-0.1,0-0.1-0.1c-0.1-0.3-0.3-0.3-0.5-0.4c-0.3-0.1-0.6-0.1-0.8-0.4c-0.2-0.2-0.3-0.2-0.5,0
				C124.1,455.8,123.6,455.1,123.1,454.3z"/>
			<path class="st68" d="M124.8,456.5c0.2-0.2,0.3-0.2,0.5,0c0.2,0.2,0.5,0.2,0.8,0.4c0.2,0.1,0.4,0.1,0.5,0.4c0,0,0.1,0.1,0.1,0.1
				c0.3,0,0.6,0.2,0.8,0.4c0.5,0.4,1.1,0.6,1.6,0.9c0.3,0.2,0.6,0.3,0.8,0.5c0.1,0.1,0.2,0.1,0.2,0.1c0.2,0,0.3,0.1,0.4,0.2
				c0.2,0.4,0.5,0.5,1,0.6c-0.1,0.1-0.3,0.2-0.3,0.3c-1.4-0.4-2.7-0.9-3.9-1.7c-0.9-0.5-1.6-1.2-2.3-1.9
				C124.9,456.7,124.8,456.7,124.8,456.5z"/>
			<path class="st69" d="M121,448.8c0-0.1,0-0.2-0.1-0.3c0,0,0,0,0,0c0-0.2,0.1-0.4-0.1-0.5c0-0.4-0.1-0.8-0.1-1.2
				c0.1,0,0.1,0,0.1,0.1c0,0.7,0.4,0.9,0.9,1.2c1.1,0.7,2.2,1.3,3.2,2c0.5,0.3,1,0.6,1.5,0.9c0.1,0.1,0.2,0.2,0.3,0.4
				c0.2-0.1,0.3-0.2,0.4-0.3c0,0,0.1,0.1,0.1,0.1c0.2,0.5,0.4,0.9,0.8,1.3l0,0c0,0.1,0.1,0.2,0.1,0.3c-0.1,0.1-0.2,0.1-0.3,0
				c-0.1-0.2-0.2-0.3-0.4-0.3c-0.1,0-0.2-0.1-0.2-0.2c0-0.1,0-0.4-0.3-0.2c-0.1,0.1-0.2,0-0.2-0.1c0-0.2,0-0.3-0.2-0.1
				c-0.1,0.1-0.2,0-0.2-0.1c-0.4-0.3-0.8-0.6-1.3-0.8c-1.1-0.7-2.1-1.4-3.3-1.9c-0.2-0.1-0.4-0.2-0.5-0.4
				C121.1,448.6,121.2,448.8,121,448.8z"/>
			<path class="st68" d="M131.3,460.5c0.2-0.2,0.5-0.2,0.7,0c0.2,0.1,0.4,0.2,0.6,0.3c0.1,0,0.1,0,0.2,0.1
				C132.3,460.8,131.8,460.7,131.3,460.5z"/>
			<path class="st74" d="M120.7,448c0.2,0.1,0.1,0.3,0.1,0.5C120.8,448.3,120.7,448.2,120.7,448z"/>
			<path class="st70" d="M127.1,451.2c0,0-0.1-0.1-0.1-0.1c0-0.2-0.2-0.3-0.1-0.5c0-0.2,0-0.4-0.2-0.5c-0.1-0.2-0.1-0.3-0.2-0.5
				c0-0.1,0-0.2,0-0.3c0-0.1,0-0.1,0-0.1c0,0,0.1,0,0.1,0c0.2,0.3,0.6,0.4,0.9,0.6c0.3,0.2,0.6,0.4,0.9,0.6c0.8,0.6,1.7,1.1,2.6,1.7
				c0.8,0.5,1.5,1,2.3,1.5c1.1,0.7,2.2,1.4,3.3,2.1c0.4,0.3,0.8,0.6,1.3,0.8c0.1,0.1,0.2,0.2,0.3,0.3l0,0c-0.3,0-0.7-0.1-1,0.1
				c-0.3,0-0.6-0.1-0.9-0.1c0-0.1-0.1-0.1-0.2-0.2c-0.1-0.1-0.4,0-0.1-0.2c0,0-0.1-0.2-0.2-0.2c-0.4,0-0.7-0.3-1-0.5
				c-1.1-0.7-2.1-1.5-3.3-2.1c-0.8-0.5-1.6-1.1-2.4-1.6c-0.4-0.3-0.8-0.5-1.3-0.8c-0.1-0.1-0.2-0.1-0.2-0.1c-0.3,0-0.3-0.2-0.5-0.4
				c0,0,0,0,0,0c0,0,0,0,0,0c0,0,0,0-0.1-0.1c0,0,0,0,0,0.1C127.1,451,127.1,451.1,127.1,451.2z"/>
			<path class="st73" d="M132.9,451.3c0,0,0,0.1,0,0.1h0c-0.5,0.1-0.7-0.3-0.9-0.6c-0.1-0.2-0.3-0.3-0.6-0.2c-0.1,0-0.1,0-0.1,0
				c-0.9-0.8-1.9-1.5-2.9-2.1c-0.6-0.4-1.2-0.8-1.8-1.2c-0.1-0.1-0.3-0.2-0.4,0.1c-0.2-0.1,0-0.3-0.2-0.5c0,0.3,0,0.5,0,0.7
				c-0.1,0-0.1-0.2-0.1-0.3c0-0.2,0-0.5,0-0.7c0-0.1,0-0.2-0.1-0.2c0-0.1,0-0.2,0-0.3c0.2,0.1,0.6-0.2,0.7,0.3
				c0,0.1,0.1,0.1,0.1,0.1c0.6,0.3,1.2,0.7,1.8,1.1c0.4,0.3,0.8,0.5,1.2,0.7c0.4,0.2,0.7,0.5,1.1,0.7c0.1,0.1,0.3,0.2,0.4,0
				c0.1,0.1,0.1,0.2,0.2,0.3c0.4,0.6,0.8,1.1,1.3,1.6c0,0.1,0,0.1,0.1,0.1l0,0c0,0,0,0,0.1,0.1c0,0,0,0,0.1,0
				C132.8,451.2,132.8,451.3,132.9,451.3L132.9,451.3z M131.3,450.1c0-0.1,0-0.2-0.1-0.2c-0.1,0-0.1,0-0.1,0.1
				c0,0.1,0.1,0.2,0.2,0.2C131.3,450.2,131.3,450.1,131.3,450.1z"/>
			<path class="st68" d="M126.6,450.1c0.2,0.1,0.3,0.3,0.2,0.5C126.7,450.5,126.7,450.3,126.6,450.1z"/>
			<path class="st71" d="M126.5,449.3c0,0.1,0,0.2,0,0.3c-0.2,0-0.1-0.2-0.1-0.3C126.4,449.3,126.4,449.3,126.5,449.3z"/>
			<path class="st71" d="M126.2,448.9c0.1,0,0.1,0.1,0.1,0.2C126.3,449.1,126.2,449,126.2,448.9z"/>
			<path class="st67" d="M125.7,446.3c0.1,0,0.1,0.1,0.1,0.2C125.8,446.5,125.7,446.4,125.7,446.3z"/>
			<path class="st64" d="M132.8,451.2C132.8,451.2,132.7,451.2,132.8,451.2c-0.1,0-0.1-0.1-0.1-0.1l0,0c0-0.1-0.1-0.1-0.1-0.1
				c-0.5-0.5-0.9-1-1.3-1.6c-0.1-0.1-0.1-0.2-0.2-0.3c-0.1-0.4-0.4-0.8-0.5-1.2c0.1,0,0.1-0.3,0.2-0.1c0.2,0.2,0.4,0.2,0.5,0.3
				c1.1,0.7,2.2,1.4,3.3,2.1c0.3,0.2,0.6,0.4,0.9,0.6c0.7,0.4,1.4,0.9,2.1,1.3c0.6,0.4,1.1,0.8,1.8,1c-0.2,0.3-0.6,0.2-0.9,0.3
				c-0.1,0-0.3,0-0.4,0v0c0,0-0.1-0.1-0.1-0.1c-0.2,0-0.3,0-0.5,0l0,0h0c-0.4-0.1-0.8-0.3-1.3-0.3c-0.2-0.1-0.4-0.1-0.6-0.2
				c-0.2,0-0.3-0.1-0.5-0.1c-0.4-0.2-0.8-0.4-1.2-0.6c-0.4-0.2-0.7-0.5-1.1-0.7l0,0C132.9,451.2,132.9,451.2,132.8,451.2z"/>
			<path class="st65" d="M138.5,453.3c0.3-0.2,0.6,0,0.9-0.3c-0.7-0.1-1.2-0.6-1.8-1c-0.7-0.4-1.4-0.9-2.1-1.3
				c-0.3-0.2-0.6-0.4-0.9-0.6c-1.1-0.6-2.2-1.4-3.3-2.1c-0.2-0.1-0.4-0.2-0.5-0.3c-0.2-0.2-0.2,0.1-0.2,0.1
				c-0.1-0.1-0.1-0.2-0.1-0.3c0.1-0.1,0.1-0.2-0.1-0.2c0-0.1,0-0.1-0.1-0.2c0.3-0.2,0.5-0.1,0.7,0.1c0.4,0.4,1,0.6,1.5,0.9
				c0.5,0.4,1.1,0.6,1.6,1.1c0.1,0.1,0.1,0.1,0.2,0.1c0.3,0.1,0.5,0.2,0.7,0.4c0.1,0.1,0.2,0.2,0.4,0.1c0.1-0.1,0.2,0,0.2,0.1
				c0,0.1,0,0.2,0.2,0.2c0.4,0,0.6,0.2,0.8,0.5c0.1,0.1,0.2,0.2,0.3,0.2c0.3,0.1,0.6,0.4,0.9,0.5c0.2,0.1,0.2,0.1,0,0.3
				c0.3-0.1,0.4-0.1,0.6,0.2c0.1,0.2,0.4,0.3,0.6,0.4c0.3,0.2,0.6,0.4,0.9,0.6c0.2,0.2,0.4,0.1,0.6,0.1c0.3,0,0.4,0.1,0.4,0.4
				C140,453.4,139.3,453.4,138.5,453.3C138.5,453.4,138.5,453.3,138.5,453.3z"/>
			<path class="st70" d="M130.3,447.3c0.1,0,0.2,0.1,0.1,0.2C130.3,447.5,130.3,447.4,130.3,447.3z"/>
			<path class="st73" d="M137.5,453.3c0.1,0,0.3,0,0.5,0c0,0,0,0,0,0.1C137.8,453.4,137.7,453.5,137.5,453.3z"/>
			<path class="st73" d="M138.5,453.3C138.5,453.3,138.5,453.4,138.5,453.3c-0.1,0-0.3,0.1-0.4,0
				C138.3,453.3,138.4,453.3,138.5,453.3z"/>
			<path class="st65" d="M138,453.3C138,453.3,138,453.3,138,453.3c0-0.1,0.1-0.1,0.1,0C138.1,453.3,138,453.3,138,453.3z"/>
			<path class="st73" d="M132.9,451.4C132.9,451.4,133,451.4,132.9,451.4C133,451.5,133,451.5,132.9,451.4
				C132.9,451.5,132.9,451.5,132.9,451.4L132.9,451.4z"/>
			<path class="st64" d="M133.2,456.4c-0.4-0.2-0.8-0.3-1.2-0.5c-0.9-0.4-1.8-1-2.5-1.6c-0.3-0.2-0.5-0.5-0.8-0.7
				c-0.3-0.2-0.3-0.5-0.5-0.7c0-0.2-0.1-0.3-0.3-0.4l0,0c0,0,0-0.1,0-0.1c0-0.1,0-0.2,0.1-0.2c0.1,0,0.2,0.1,0.2,0.2
				c0,0.2,0.3,0.3,0.3,0.5c0,0.1,0.1,0,0.1,0c0.2-0.1,0.3,0,0.4,0.2c0.1,0.2,0.4,0.3,0.6,0.4c0.2,0.1,0.4,0.2,0.6,0.3
				c0.7,0.5,1.4,0.9,2.1,1.4c0.2,0.2,0.5,0.3,0.8,0.5c0.1,0.1,0.3,0.2,0.4,0.4c0.1,0.2,0.3,0.1,0.5,0.1c0.1,0,0.2,0,0.2,0.1
				c0,0-0.1,0.1-0.1,0.1c0,0,0,0,0,0.1c0.1,0.1,0.3-0.1,0.4,0.1c0,0.3-0.3,0.1-0.4,0.2C133.7,456.5,133.5,456.4,133.2,456.4z"/>
			<path class="st71" d="M135.6,452.7c0.2,0.1,0.4,0.1,0.6,0.2C136,453.1,135.8,453,135.6,452.7z"/>
			<path class="st71" d="M136.4,453.6c0-0.2,0.1-0.1,0.2-0.1C136.6,453.7,136.5,453.6,136.4,453.6L136.4,453.6z"/>
			<path class="st68" d="M137.2,457c0.3-0.1,0.7,0,1-0.1c0,0,0,0,0,0.1C137.8,457,137.5,457,137.2,457z"/>
			<path class="st72" d="M128.2,452.9c0.2,0.2,0.3,0.5,0.5,0.7c0,0.1,0.1,0.2-0.2,0.2c-0.3-0.1-0.5-0.3-0.7-0.5c0,0,0-0.1-0.1-0.1
				c-0.3,0.1-0.5-0.2-0.8-0.3c-0.5-0.3-1-0.6-1.4-0.9c-0.3-0.2-0.6-0.4-0.9-0.5c-0.8-0.4-1.5-0.9-2.3-1.4c-0.4-0.3-0.8-0.5-1.1-0.8
				c-0.2-0.1-0.3-0.3-0.2-0.5c0.2,0,0.1-0.2,0.2-0.2c0.1,0.2,0.3,0.3,0.5,0.4c1.1,0.6,2.2,1.3,3.3,1.9c0.4,0.3,0.9,0.5,1.3,0.8
				c0.1,0.1,0.2,0.1,0.2,0.1c0.2-0.1,0.2,0,0.2,0.1c0,0.1,0.1,0.2,0.2,0.1c0.3-0.2,0.3,0.1,0.3,0.2c0,0.1,0,0.2,0.2,0.2
				c0.2,0,0.3,0.1,0.4,0.3c0,0.1,0.2,0.1,0.3,0C128.1,452.8,128.1,452.8,128.2,452.9z"/>
			<path class="st65" d="M128.2,452.9c0,0-0.1,0-0.1-0.1c0-0.1-0.1-0.2-0.1-0.3C128.1,452.5,128.2,452.7,128.2,452.9z"/>
			<path class="st65" d="M127,450.8C127.1,450.8,127.1,450.8,127,450.8c0.1,0,0.1,0,0.1,0C127.2,450.9,127.1,450.9,127,450.8
				C127.1,450.9,127.1,450.9,127,450.8z"/>
			<path class="st71" d="M131.3,450.1c0,0.1,0,0.2-0.1,0.1c-0.1,0-0.2-0.1-0.2-0.2c0-0.1,0-0.1,0.1-0.1
				C131.3,449.9,131.3,450,131.3,450.1z"/>
			<path class="st71" d="M132.5,451c0.1,0,0.1,0,0.1,0.1C132.6,451.1,132.5,451,132.5,451z"/>
			<path class="st71" d="M132.8,451.2c0.1,0,0.1,0,0.1,0.1C132.8,451.3,132.8,451.2,132.8,451.2z"/>
			<path class="st71" d="M132.6,451.1C132.7,451.1,132.7,451.1,132.6,451.1C132.7,451.1,132.7,451.1,132.6,451.1z"/>
		</g>
	</g>
	<g id="XMLID_7_">
		<path id="XMLID_19_" class="st22" d="M281.9,686.5h-115c-12.7,0-23-10.3-23-23v-144"/>
		<path id="XMLID_16_" class="st22" d="M281.9,686.5c0,5.9,4.8,10.7,10.7,10.7c5.9,0,10.7-4.8,10.7-10.7c0-5.9-4.8-10.7-10.7-10.7
			C286.7,675.8,281.9,680.6,281.9,686.5z"/>
		<path id="XMLID_15_" class="st22" d="M133.2,508c0,5.9,4.8,10.7,10.7,10.7c5.9,0,10.7-4.8,10.7-10.7c0-5.9-4.8-10.7-10.7-10.7
			C138,497.3,133.2,502.1,133.2,508z"/>
	</g>
	<g>
		<path class="st77" d="M197.7,474.1c0,7.8-6.3,14.2-14.2,14.2c-7.8,0-14.2-6.3-14.2-14.2c0-7.8,6.3-14.2,14.2-14.2
			C191.3,460,197.7,466.3,197.7,474.1z"/>
	</g>
	<g>
		<path class="st78" d="M190.1,479.8l-15.2,1.5c-0.5,0.1-1-0.3-1.1-0.9l-0.6-6.3c-0.1-0.5,0.3-1,0.9-1.1l15.2-1.5
			c0.5-0.1,1,0.3,1.1,0.9l0.6,6.3C191.1,479.3,190.7,479.8,190.1,479.8"/>
		<path class="st79" d="M190.1,479.2l-15.2,1.5c-0.5,0.1-1-0.3-1.1-0.9l-0.6-6.3c-0.1-0.5,0.3-1,0.9-1.1l15.2-1.5
			c0.5-0.1,1,0.3,1.1,0.9l0.6,6.3C191,478.6,190.6,479.1,190.1,479.2"/>
		<path class="st80" d="M188.9,478.2l-13.1,1.3c-0.4,0-0.8-0.3-0.9-0.7l-0.4-4.6c0-0.4,0.3-0.8,0.7-0.9l13.1-1.3
			c0.4,0,0.8,0.3,0.9,0.7l0.4,4.6C189.7,477.8,189.4,478.2,188.9,478.2"/>
		<g class="st81">
			<g>
				<defs>
					<rect id="SVGID_2_" x="174.6" y="472.5" width="12.9" height="6.3"/>
				</defs>
				<clipPath id="SVGID_3_">
					<use xlink:href="#SVGID_2_"  style="overflow:visible;"/>
				</clipPath>
				<g class="st82">
					<defs>
						<rect id="SVGID_4_" x="174.6" y="472.5" width="12.9" height="6.3"/>
					</defs>
					<clipPath id="SVGID_5_">
						<use xlink:href="#SVGID_4_"  style="overflow:visible;"/>
					</clipPath>
					<path class="st83" d="M174.6,474.3c0,0,0.7,4.4,4.1,3.5c3.5-0.8,4.7,0.9,4.7,0.9l2.4-0.2l1.7-1.2l-0.7-4.8l-11.6,1L174.6,474.3
						z"/>
				</g>
			</g>
		</g>
		<path class="st84" d="M184.3,475.6c0.1,1.4-0.8,2.6-2,2.7c-1.3,0.1-2.4-0.9-2.5-2.2s0.8-2.6,2-2.7
			C183.1,473.2,184.2,474.2,184.3,475.6"/>
		<path class="st79" d="M175.2,477c0,0.4-0.3,0.8-0.7,0.9c-0.4,0-0.8-0.3-0.8-0.7c0-0.4,0.3-0.8,0.7-0.9
			C174.8,476.3,175.1,476.6,175.2,477"/>
		<path class="st79" d="M175.3,477.1c0,0.4-0.3,0.8-0.7,0.9c-0.4,0-0.8-0.3-0.8-0.7c0-0.4,0.3-0.8,0.7-0.9
			C174.9,476.3,175.3,476.7,175.3,477.1"/>
		<path class="st79" d="M190.4,477.8c0,0.4-0.3,0.8-0.7,0.9c-0.4,0-0.8-0.3-0.8-0.7c0-0.4,0.3-0.8,0.7-0.9
			C190,477,190.4,477.3,190.4,477.8"/>
		<path class="st79" d="M189.6,472c0,0.4-0.3,0.8-0.7,0.9c-0.4,0-0.8-0.3-0.8-0.7c0-0.4,0.3-0.8,0.7-0.9
			C189.2,471.3,189.6,471.6,189.6,472"/>
		<path class="st84" d="M177.9,480.5l-1.3,0.1c-0.3,0-0.5-0.2-0.5-0.4l0-0.2c0-0.3,0.2-0.5,0.4-0.5l1.3-0.1c0.3,0,0.5,0.2,0.5,0.4
			l0,0.2C178.3,480.3,178.1,480.5,177.9,480.5"/>
		<path class="st84" d="M187.3,475.9L186,476c-0.3,0-0.5-0.2-0.5-0.4l0-0.2c0-0.3,0.2-0.5,0.4-0.5l1.3-0.1c0.3,0,0.5,0.2,0.5,0.4
			l0,0.2C187.8,475.7,187.6,475.9,187.3,475.9"/>
		<path class="st78" d="M192,477.5l-15.3-0.8c-0.5,0-0.9-0.5-0.9-1l0.3-6.3c0-0.5,0.5-1,1-0.9l15.3,0.8c0.5,0,0.9,0.5,0.9,1
			l-0.3,6.3C193,477.2,192.5,477.6,192,477.5"/>
		<path class="st79" d="M192,476.9l-15.3-0.8c-0.5,0-0.9-0.5-0.9-1l0.3-6.3c0-0.5,0.5-1,1-0.9l15.3,0.8c0.5,0,0.9,0.5,0.9,1L193,476
			C193,476.5,192.5,476.9,192,476.9"/>
		<path class="st80" d="M191,475.8l-13.1-0.7c-0.4,0-0.8-0.4-0.7-0.8l0.2-4.6c0-0.4,0.4-0.8,0.8-0.8l13.1,0.7c0.4,0,0.8,0.4,0.7,0.8
			l-0.2,4.6C191.8,475.5,191.4,475.8,191,475.8"/>
		<g class="st81">
			<g>
				<defs>
					<rect id="SVGID_6_" x="177.5" y="469" width="14.6" height="6.7"/>
				</defs>
				<clipPath id="SVGID_7_">
					<use xlink:href="#SVGID_6_"  style="overflow:visible;"/>
				</clipPath>
				<g class="st85">
					<defs>
						<rect id="SVGID_8_" x="177.5" y="469" width="14.6" height="6.7"/>
					</defs>
					<clipPath id="SVGID_9_">
						<use xlink:href="#SVGID_8_"  style="overflow:visible;"/>
					</clipPath>
					<path class="st86" d="M177.5,470.9c0,0,0,1.8,2.1,2.6c2.1,0.8,2.4,1.9,2.4,1.9l6.3,0.2c0,0,0.5-3.3,2-3.7
						c1.4-0.4,1.7-0.5,1.7-0.5l0-0.8c0,0-0.7,0.2-0.9-0.9l-12.9-0.7c0,0-0.3,1-0.8,0.8C177.5,470.2,177.5,470.9,177.5,470.9"/>
				</g>
			</g>
		</g>
		<path class="st84" d="M186.9,472.5c-0.1,1.4-1.1,2.4-2.4,2.4c-1.3-0.1-2.2-1.2-2.1-2.6c0.1-1.4,1.1-2.4,2.4-2.4
			C186,469.9,186.9,471.1,186.9,472.5"/>
		<path class="st79" d="M178.1,472.6c0,0.4-0.4,0.8-0.8,0.8c-0.4,0-0.7-0.4-0.7-0.9c0-0.4,0.4-0.8,0.8-0.8
			C177.8,471.7,178.2,472.1,178.1,472.6"/>
		<path class="st79" d="M178.3,472.7c0,0.5-0.4,0.8-0.8,0.8c-0.4,0-0.7-0.4-0.7-0.9c0-0.4,0.4-0.8,0.8-0.8
			C178,471.8,178.3,472.2,178.3,472.7"/>
		<path class="st79" d="M177.8,478.7c0,0.4-0.4,0.8-0.8,0.8c-0.4,0-0.7-0.4-0.7-0.9c0-0.4,0.4-0.8,0.8-0.8
			C177.6,477.9,177.9,478.3,177.8,478.7"/>
		<path class="st79" d="M192.5,475.6c0,0.4-0.4,0.8-0.8,0.8c-0.4,0-0.7-0.4-0.7-0.9c0-0.4,0.4-0.8,0.8-0.8
			C192.3,474.8,192.6,475.2,192.5,475.6"/>
		<path class="st79" d="M192.6,469.8c0,0.5-0.4,0.8-0.8,0.8c-0.4,0-0.7-0.4-0.7-0.9c0-0.4,0.4-0.8,0.8-0.8
			C192.3,469,192.6,469.3,192.6,469.8"/>
		<path class="st84" d="M180.3,472.8l-1.3-0.1c-0.3,0-0.5-0.2-0.4-0.5l0-0.2c0-0.3,0.2-0.5,0.5-0.4l1.3,0.1c0.3,0,0.5,0.2,0.4,0.5
			l0,0.2C180.8,472.6,180.5,472.8,180.3,472.8"/>
		<path class="st84" d="M189.8,473.3l-1.3-0.1c-0.3,0-0.5-0.2-0.4-0.5l0-0.2c0-0.3,0.2-0.5,0.5-0.4l1.3,0.1c0.3,0,0.5,0.2,0.4,0.5
			l0,0.2C190.2,473.1,190,473.3,189.8,473.3"/>
		<g class="st87">
			<g>
				<defs>
					<rect id="SVGID_10_" x="192.5" y="470.6" width="0.9" height="4.4"/>
				</defs>
				<clipPath id="SVGID_11_">
					<use xlink:href="#SVGID_10_"  style="overflow:visible;"/>
				</clipPath>
				<g class="st88">
					<defs>
						<rect id="SVGID_12_" x="192.5" y="470.6" width="0.9" height="4.4"/>
					</defs>
					<clipPath id="SVGID_13_">
						<use xlink:href="#SVGID_12_"  style="overflow:visible;"/>
					</clipPath>
					<path class="st89" d="M192.8,475C192.8,475,192.8,475,192.8,475c-0.2,0-0.3-0.2-0.3-0.4l0.2-3.8c0-0.2,0.2-0.3,0.3-0.3
						c0.2,0,0.3,0.2,0.3,0.4l-0.2,3.8C193.1,474.9,193,475,192.8,475"/>
				</g>
			</g>
		</g>
	</g>
</g>
</svg>
